<svg width="548" height="211" viewBox="0 0 548 211" fill="none" xmlns="http://www.w3.org/2000/svg">
<path d="M534.34 207.71C542.11 203.53 547.34 194.52 547.88 185.87C547.895 185.724 547.895 185.576 547.88 185.43C544.69 163.09 543.33 139.68 537.12 117.87C531.6 98.49 518.96 70.81 496.29 67.56L28.86 0.470004C9.49 -2.31 -2.76 20.26 1.65 50.62L10 108.44C14.41 138.8 33.86 165.92 53.23 168.7C130.563 176.86 207.967 184.59 285.44 191.89C361.54 199.07 437.61 205.34 513.9 210.14C519.1 210.47 524.4 210.79 529.47 209.56C531.166 209.156 532.803 208.534 534.34 207.71Z" fill="white"/>
</svg>
