<svg width="546" height="178" viewBox="0 0 546 178" fill="none" xmlns="http://www.w3.org/2000/svg">
<path d="M543.35 51.32C536.878 49.8272 530.262 49.0492 523.62 49C513.2 49 502.62 51.19 493.56 56.27C484.76 42.98 472.71 33.7 461.25 32.84L24.19 0.140011C6.08 -1.21999 -3.95 19 1.91 45L13.07 94.57C18.93 120.57 38.55 142.99 56.66 144.35C56.66 144.35 497.58 178.45 497.06 177.03C513.06 175.81 521.5 156.56 516.01 132.18L505.47 85.37C515.67 72.23 529.54 57.72 543.22 55.45C543.706 55.3772 544.152 55.136 544.478 54.7686C544.805 54.4011 544.992 53.9307 545.008 53.4393C545.023 52.9478 544.866 52.4665 544.563 52.0792C544.26 51.692 543.831 51.4233 543.35 51.32ZM494.13 57.11L493.7 56.45L500.42 54.65C498.72 55.23 497.03 55.85 495.42 56.53C494.978 56.6944 494.547 56.8881 494.13 57.11Z" fill="#FFEC00"/>
</svg>
