<?xml version="1.0" encoding="UTF-8"?>
<svg id="_Слой_2" data-name="Слой 2" xmlns="http://www.w3.org/2000/svg" xmlns:xlink="http://www.w3.org/1999/xlink" viewBox="0 0 421.22 43.29">
  <defs>
    <style>
      .cls-1, .cls-2 {
        fill: #383333;
      }

      .cls-2 {
        stroke: #383333;
        stroke-miterlimit: 10;
        stroke-width: 2px;
      }

      .cls-3 {
        fill: url(#Red_Radial);
      }

      .cls-4 {
        fill: url(#_Ѕезым_нный_градиент_5);
      }
    </style>
    <linearGradient id="_Ѕезым_нный_градиент_5" data-name="Ѕезым€нный градиент 5" x1="3120.9" y1="-1788.45" x2="3144.73" y2="-1788.45" gradientTransform="translate(1641.54 3362.44) rotate(-82.67)" gradientUnits="userSpaceOnUse">
      <stop offset="0" stop-color="#fff"/>
      <stop offset=".07" stop-color="#ffd5d5"/>
      <stop offset=".16" stop-color="#ffa4a4"/>
      <stop offset=".26" stop-color="#ff7878"/>
      <stop offset=".36" stop-color="#ff5353"/>
      <stop offset=".47" stop-color="#ff3434"/>
      <stop offset=".58" stop-color="#ff1d1d"/>
      <stop offset=".7" stop-color="#ff0c0c"/>
      <stop offset=".83" stop-color="#ff0303"/>
      <stop offset="1" stop-color="red"/>
    </linearGradient>
    <radialGradient id="Red_Radial" data-name="Red Radial" cx="3018.45" cy="-1807.06" fx="3018.45" fy="-1807.06" r="10.79" gradientTransform="translate(1512.69 3307.36) rotate(-79.8)" gradientUnits="userSpaceOnUse">
      <stop offset="0" stop-color="#fff"/>
      <stop offset=".12" stop-color="#fec7c6"/>
      <stop offset=".24" stop-color="#fd9695"/>
      <stop offset=".36" stop-color="#fc6d6b"/>
      <stop offset=".48" stop-color="#fc4b48"/>
      <stop offset=".61" stop-color="#fb302e"/>
      <stop offset=".73" stop-color="#fb1d1b"/>
      <stop offset=".86" stop-color="#fb120f"/>
      <stop offset="1" stop-color="#fb0f0c"/>
    </radialGradient>
  </defs>
  <g id="_Слой_1-2" data-name="Слой 1">
    <g>
      <path class="cls-1" d="m19.78,29.6c0,1.15-.19,2.2-.62,3.13-.42.93-.99,1.74-1.7,2.4-.72.67-1.56,1.19-2.52,1.57-.96.38-1.98.57-3.06.58l-11.65.1-.23-25.57,10.77-.1c1.35-.01,2.55.16,3.61.5,1.06.35,1.95.83,2.68,1.46.73.63,1.28,1.39,1.65,2.28.38.89.57,1.86.58,2.92,0,.93-.23,1.86-.71,2.8-.48.94-1.3,1.68-2.44,2.23v.15c.59.22,1.11.53,1.55.94.44.41.82.87,1.13,1.39s.55,1.05.71,1.61c.17.56.25,1.1.25,1.62Zm-6.49-10.42c0-.71-.26-1.29-.75-1.74-.49-.45-1.33-.67-2.5-.66l-4.34.04.05,5.11,4.34-.04c1.18-.01,2.01-.29,2.49-.83.49-.54.72-1.17.72-1.88Zm.68,10.21c0-.37-.07-.72-.2-1.06-.13-.34-.32-.65-.6-.91-.27-.27-.62-.48-1.05-.63-.43-.16-.94-.23-1.53-.23l-4.81.04.05,5.66,4.81-.04c1.2-.01,2.06-.3,2.57-.87s.76-1.22.76-1.96Z"/>
      <path class="cls-1" d="m38.14,23.85c1.03.33,1.84.94,2.42,1.82.58.88,1.05,1.93,1.41,3.15l2.54,8.17-5.77.05-2.01-6.49c-.28-.83-.59-1.51-.94-2.03-.35-.52-.72-.92-1.13-1.2-.41-.28-.84-.46-1.29-.56-.45-.09-.93-.14-1.42-.13l-2.72.02.09,10.47-5.66.05-.23-25.61,5.66-.05.09,10.25,2.53-.02c.39,0,.81-.05,1.27-.12.45-.08.89-.25,1.3-.51.41-.26.8-.64,1.17-1.13.36-.49.66-1.17.9-2.03l2-6.41,5.48-.05-2.25,7.48c-.33,1.2-.79,2.22-1.37,3.04-.58.83-1.26,1.4-2.04,1.73l-.03.11Z"/>
      <path class="cls-1" d="m67.05,11.21l.23,25.57-5.58.05-.18-20.46-5.99.05.06,6.1c.02,1.96-.06,3.82-.25,5.59-.18,1.77-.59,3.33-1.22,4.68-.63,1.35-1.54,2.44-2.74,3.28-1.2.83-2.81,1.29-4.85,1.38l-.81-4.59c1.1-.23,1.96-.61,2.58-1.15.62-.53,1.08-1.21,1.38-2.05.3-.84.49-1.81.56-2.93.08-1.11.11-2.39.09-3.84l-.1-11.54,16.83-.15Z"/>
      <path class="cls-1" d="m90.24,10.82c1.64-.01,3.06.23,4.27.72,1.2.49,2.2,1.18,2.99,2.05.79.88,1.38,1.92,1.77,3.14.39,1.22.59,2.54.6,3.96l.05,6.03c.01,1.52-.2,2.9-.62,4.14-.43,1.24-1.05,2.3-1.86,3.18-.81.88-1.82,1.55-3.01,2.03-1.19.48-2.55.72-4.07.73-1.67.02-3.1-.24-4.31-.77-1.21-.53-2.2-1.25-2.98-2.16-.78-.91-1.36-1.97-1.74-3.18-.38-1.21-.57-2.48-.58-3.8v-.66s-2.65.02-2.65.02l.09,10.43-5.66.05-.23-25.57,5.66-.05.09,10.25,2.65-.02v-.48c-.02-1.32.16-2.59.53-3.79.37-1.2.94-2.27,1.72-3.19.77-.93,1.77-1.66,2.97-2.21,1.21-.55,2.64-.83,4.31-.85Zm-.05,5.29c-.71,0-1.32.13-1.81.36-.49.24-.89.55-1.19.95-.3.4-.52.85-.65,1.35-.13.51-.19,1.01-.19,1.53l.06,6.95c0,.56.08,1.1.22,1.61.14.51.36.97.66,1.35.3.39.69.71,1.17.95.48.24,1.08.36,1.79.35,1.38-.01,2.38-.43,3-1.26.62-.83.92-1.85.91-3.08l-.06-6.95c-.01-1.13-.33-2.1-.95-2.91-.62-.82-1.61-1.22-2.97-1.2Z"/>
      <path class="cls-1" d="m108.87,10.8l.07,7.79c.02,2.7,1.36,4.03,4.01,4.01.29,0,.63-.03,1.01-.08.38-.05.76-.12,1.14-.19.38-.08.74-.17,1.08-.29.34-.11.65-.23.92-.36l-.1-10.95,5.55-.05.23,25.57-5.59.05-.09-10.33c-.76.42-1.65.72-2.67.89-1.03.17-2.02.26-2.97.26-1.03,0-2.02-.11-2.98-.38-.96-.26-1.81-.69-2.55-1.3-.74-.6-1.34-1.4-1.79-2.39-.45-.99-.68-2.22-.69-3.69l-.08-8.52,5.51-.05Z"/>
      <path class="cls-1" d="m127.94,36.24l-.23-25.57,5.66-.05.14,16.02h.11s5.18-8.24,5.18-8.24l5.29-7.87,4.67-.04.23,25.57-5.66.05-.14-15.47h-.11s-3.69,6.1-3.69,6.1l-6.42,9.46-5.03.04Z"/>
      <path class="cls-1" d="m172.38,29.63c-.62,2.01-1.75,3.6-3.39,4.75-1.64,1.15-3.67,1.74-6.06,1.76-1.67.02-3.12-.22-4.36-.7-1.24-.48-2.27-1.15-3.09-2.03-.82-.87-1.44-1.92-1.85-3.14-.41-1.22-.63-2.56-.64-4.03l-.05-6.03c-.01-1.32.18-2.59.57-3.79.39-1.2.99-2.27,1.8-3.19.81-.92,1.82-1.66,3.05-2.21,1.23-.55,2.67-.83,4.34-.85,2.45-.02,4.49.55,6.13,1.73,1.64,1.17,2.79,2.74,3.44,4.69l-5.35,1.96c-.2-.88-.66-1.62-1.38-2.21s-1.66-.88-2.84-.87c-.71,0-1.32.13-1.83.37-.51.24-.94.55-1.28.95-.34.4-.59.85-.76,1.35-.17.51-.25,1.01-.24,1.53l.06,6.95c0,.56.09,1.1.27,1.61.18.51.44.96.78,1.35.35.39.78.7,1.3.94.52.24,1.13.36,1.84.35,1.15-.01,2.09-.32,2.8-.93.72-.61,1.17-1.37,1.36-2.31l5.38,2.01Z"/>
      <path class="cls-1" d="m195.7,27.47c.02,2.55-.75,4.55-2.32,6.01-1.57,1.46-3.76,2.2-6.58,2.23l-10.77.1-.23-25.57,5.66-.05.09,9.81,5.18-.05c1.47-.01,2.76.19,3.88.61,1.12.42,2.05.98,2.81,1.68.75.7,1.32,1.51,1.69,2.41.38.9.57,1.85.58,2.82Zm-5.73.27c0-.71-.27-1.35-.79-1.9-.52-.56-1.38-.83-2.58-.82l-5.03.04.05,5.62,5.03-.04c1.2-.01,2.06-.31,2.56-.91.51-.59.76-1.25.75-1.99Z"/>
      <path class="cls-1" d="m228.69,27.73c0,1.15-.19,2.19-.62,3.13-.42.93-.99,1.73-1.7,2.4-.72.67-1.56,1.19-2.52,1.57-.97.38-1.99.57-3.06.58l-11.65.1-.23-25.57,10.77-.1c1.35-.01,2.55.15,3.61.5,1.06.35,1.95.83,2.68,1.46.73.63,1.28,1.39,1.66,2.28.38.89.57,1.86.58,2.92,0,.93-.23,1.86-.71,2.8-.48.93-1.3,1.68-2.44,2.23v.15c.59.22,1.11.53,1.55.94.44.41.82.87,1.13,1.38.31.51.55,1.05.71,1.61.16.56.25,1.1.25,1.62Zm-6.49-10.42c0-.71-.26-1.29-.75-1.74-.49-.45-1.33-.67-2.5-.66l-4.34.04.05,5.11,4.34-.04c1.18-.01,2-.29,2.49-.83.48-.54.72-1.17.72-1.88Zm.68,10.21c0-.37-.07-.72-.19-1.06-.13-.34-.32-.65-.6-.91-.27-.27-.62-.48-1.05-.63s-.94-.23-1.53-.23l-4.81.04.05,5.66,4.81-.04c1.2,0,2.06-.3,2.57-.87.51-.57.76-1.22.76-1.96Z"/>
      <path class="cls-1" d="m312.66,28.38c-.62,2.01-1.75,3.6-3.39,4.75-1.64,1.15-3.67,1.74-6.07,1.76-1.67.02-3.12-.22-4.35-.7-1.24-.48-2.27-1.16-3.09-2.03-.82-.88-1.44-1.92-1.85-3.15-.41-1.22-.63-2.56-.64-4.03l-.05-6.03c-.01-1.32.18-2.59.57-3.79.39-1.2.99-2.27,1.8-3.19.81-.93,1.82-1.66,3.05-2.21,1.23-.55,2.67-.83,4.34-.85,2.45-.02,4.49.56,6.13,1.73,1.64,1.17,2.79,2.74,3.44,4.69l-5.35,1.96c-.21-.88-.66-1.62-1.38-2.21s-1.66-.88-2.84-.87c-.71,0-1.32.13-1.83.37-.51.24-.94.55-1.28.95-.34.4-.59.85-.76,1.35-.17.5-.25,1.01-.24,1.53l.06,6.95c0,.56.09,1.1.27,1.61.18.51.44.96.78,1.35.35.39.78.7,1.29.94.52.24,1.13.36,1.84.35,1.15,0,2.09-.32,2.8-.93.72-.61,1.17-1.37,1.36-2.31l5.38,2.01Z"/>
      <path class="cls-1" d="m316.32,34.55l-.23-25.57,18.08-.16.04,5.07-12.42.11.05,5.18,10.58-.1.05,4.89-10.58.1.05,5.36,12.42-.11.05,5.07-18.08.16Z"/>
      <path class="cls-1" d="m347.99,13.77l.18,20.5-5.66.05-.18-20.5-6.98.06-.04-5.07,19.62-.18.04,5.07-6.98.06Z"/>
      <path class="cls-1" d="m358.28,34.18l-.23-25.57,5.66-.05.14,16.02h.11s5.18-8.24,5.18-8.24l5.29-7.87,4.67-.04.23,25.57-5.66.05-.14-15.47h-.11s-3.69,6.1-3.69,6.1l-6.42,9.46-5.03.04Z"/>
      <path class="cls-1" d="m401.77,8.03c1.64-.01,3.06.23,4.27.72,1.21.49,2.2,1.18,3,2.05.79.88,1.38,1.92,1.77,3.14.39,1.22.59,2.54.6,3.96l.05,6.03c.01,1.52-.19,2.9-.62,4.14-.43,1.24-1.05,2.3-1.86,3.18-.81.88-1.82,1.55-3.01,2.03-1.2.48-2.55.72-4.07.73-1.67.02-3.1-.24-4.31-.77-1.2-.53-2.2-1.25-2.98-2.16-.78-.91-1.36-1.97-1.74-3.18-.38-1.21-.57-2.48-.58-3.8v-.66s-2.65.02-2.65.02l.09,10.43-5.66.05-.23-25.57,5.66-.05.09,10.25,2.65-.02v-.48c-.02-1.32.16-2.58.53-3.79.37-1.2.94-2.27,1.72-3.19.77-.92,1.77-1.66,2.97-2.21,1.21-.55,2.64-.83,4.31-.85Zm-.05,5.29c-.72,0-1.32.13-1.81.37-.49.24-.89.55-1.19.95-.3.4-.52.85-.65,1.35-.13.5-.19,1.01-.19,1.53l.06,6.95c0,.56.08,1.1.22,1.62.14.51.36.96.66,1.35.3.39.69.71,1.17.95.48.24,1.08.36,1.79.35,1.38-.01,2.38-.43,3-1.26.62-.83.92-1.85.91-3.08l-.06-6.95c0-1.13-.33-2.1-.95-2.91-.62-.81-1.61-1.22-2.97-1.2Z"/>
      <path class="cls-1" d="m420.71,26.6l-4.52.04-.57-18.55,5.29-.05-.2,18.56Zm-4.9,7.06l-.04-4.7,5.4-.05.04,4.7-5.4.05Z"/>
    </g>
    <path class="cls-4" d="m269.8,9.83c6.53.84,11.13,6.81,10.29,13.34-.84,6.53-6.81,11.13-13.34,10.29-6.53-.84-11.13-6.81-10.29-13.34.84-6.53,6.81-11.13,13.34-10.29Z"/>
    <path class="cls-3" d="m269.95,12.37c5.13.92,8.53,5.82,7.61,10.95s-5.82,8.53-10.95,7.61c-5.13-.92-8.53-5.82-7.61-10.95.92-5.13,5.82-8.53,10.95-7.61Z"/>
    <path class="cls-2" d="m268.3,42.29c-.56,0-1.12-.02-1.68-.07-5.5-.44-10.49-3-14.06-7.2-3.57-4.2-5.3-9.54-4.85-15.04.92-11.35,10.9-19.84,22.24-18.91,5.5.44,10.49,3,14.06,7.2,3.57,4.2,5.3,9.54,4.85,15.04h0c-.87,10.78-9.93,18.98-20.56,18.98Zm-.03-37.99c-8.94,0-16.54,6.89-17.28,15.95-.37,4.62,1.07,9.11,4.08,12.64,3,3.53,7.2,5.68,11.82,6.05,4.62.37,9.11-1.07,12.64-4.08,3.53-3,5.68-7.2,6.05-11.82h0c.37-4.62-1.07-9.11-4.08-12.64-3-3.53-7.2-5.68-11.82-6.05-.47-.04-.94-.06-1.41-.06Z"/>
  </g>
</svg>