<svg xmlns="http://www.w3.org/2000/svg"  xmlns:xlink="http://www.w3.org/1999/xlink"
     preserveAspectRatio="xMidYMid meet" viewBox="0 0 1080 1080"
     >
    <defs>
        <animateTransform repeatCount="indefinite" dur="2s" begin="0s" xlink:href="#_R_G_L_5_G" fill="freeze"
                          attributeName="transform" from="0.63 0.63" to="0.63 0.63" type="scale" additive="sum"
                          keyTimes="0;0.4166667;1" values="0.63 0.63;0.63 0.69261;0.63 0.63"
                          keySplines="0.167 0 0.667 1;0.333 0 0.667 1" calcMode="spline"/>
        <animateTransform repeatCount="indefinite" dur="2s" begin="0s" xlink:href="#_R_G_L_5_G" fill="freeze"
                          attributeName="transform" from="-546.349 6.032" to="-546.349 6.032" type="translate"
                          additive="sum" keyTimes="0;1" values="-546.349 6.032;-546.349 6.032" keySplines="0 0 1 1"
                          calcMode="spline"/>
        <animateTransform repeatCount="indefinite" dur="2s" begin="0s" xlink:href="#_R_G_L_4_G" fill="freeze"
                          attributeName="transform" from="0.8300000000000001 0.8300000000000001"
                          to="0.8300000000000001 0.8300000000000001" type="scale" additive="sum"
                          keyTimes="0;0.0833333;0.4;0.8166667;1"
                          values="0.8300000000000001 0.8300000000000001;0.8300000000000001 0.8300000000000001;0.8300000000000001 0.75;0.8300000000000001 0.87;0.8300000000000001 0.8300000000000001"
                          keySplines="0.333 0 0.667 1;0.333 0 0.667 1;0.333 0 0.667 1;0.333 0 0.667 1"
                          calcMode="spline"/>
        <animateTransform repeatCount="indefinite" dur="2s" begin="0s" xlink:href="#_R_G_L_4_G" fill="freeze"
                          attributeName="transform" from="-200.277 -15.458" to="-200.277 -15.458" type="translate"
                          additive="sum" keyTimes="0;1" values="-200.277 -15.458;-200.277 -15.458" keySplines="0 0 1 1"
                          calcMode="spline"/>
        <animateTransform repeatCount="indefinite" dur="2s" begin="0s" xlink:href="#_R_G_L_3_G" fill="freeze"
                          attributeName="transform" from="1.27 1.27" to="1.27 1.27" type="scale" additive="sum"
                          keyTimes="0;0.3666667;1" values="1.27 1.27;1.06 1.06;1.27 1.27"
                          keySplines="0.167 0.167 0.833 0.833;0.167 0.167 0.833 0.833" calcMode="spline"/>
        <animateTransform repeatCount="indefinite" dur="2s" begin="0s" xlink:href="#_R_G_L_3_G" fill="freeze"
                          attributeName="transform" from="-23.423 -286.486" to="-23.423 -286.486" type="translate"
                          additive="sum" keyTimes="0;1" values="-23.423 -286.486;-23.423 -286.486" keySplines="0 0 1 1"
                          calcMode="spline"/>
        <animateTransform repeatCount="indefinite" dur="2s" begin="0s" xlink:href="#_R_G_L_2_G" fill="freeze"
                          attributeName="transform" from="0.37178 0.37178" to="0.37178 0.37178" type="scale"
                          additive="sum" keyTimes="0;0.3;0.4666667;0.7;0.95;1"
                          values="0.37178 0.37178;0 0;0.45177999999999996 0.45177999999999996;0 0;0.37178 0.37178;0.37178 0.37178"
                          keySplines="0.167 0.167 0.833 0.833;0.167 0.167 0.833 0.833;0.167 0.167 0.833 0.833;0.167 0.167 0.833 0.833;0 0 0 0"
                          calcMode="spline"/>
        <animateTransform repeatCount="indefinite" dur="2s" begin="0s" xlink:href="#_R_G_L_2_G" fill="freeze"
                          attributeName="transform" from="-96.5 -122" to="-96.5 -122" type="translate" additive="sum"
                          keyTimes="0;1" values="-96.5 -122;-96.5 -122" keySplines="0 0 1 1" calcMode="spline"/>
        <animateTransform repeatCount="indefinite" dur="2s" begin="0s" xlink:href="#_R_G_L_1_G" fill="freeze"
                          attributeName="transform" from="0.37178 0.37178" to="0.37178 0.37178" type="scale"
                          additive="sum" keyTimes="0;0.1666667;0.25;0.5666667;0.8666667;1"
                          values="0.37178 0.37178;0 0;0.45177999999999996 0.45177999999999996;0 0;0.37178 0.37178;0.37178 0.37178"
                          keySplines="0.167 0.167 0.833 0.833;0.167 0.167 0.833 0.833;0.167 0.167 0.833 0.833;0.167 0.167 0.833 0.833;0 0 0 0"
                          calcMode="spline"/>
        <animateTransform repeatCount="indefinite" dur="2s" begin="0s" xlink:href="#_R_G_L_1_G" fill="freeze"
                          attributeName="transform" from="-96.5 -122" to="-96.5 -122" type="translate" additive="sum"
                          keyTimes="0;1" values="-96.5 -122;-96.5 -122" keySplines="0 0 1 1" calcMode="spline"/>
        <animateTransform repeatCount="indefinite" dur="2s" begin="0s" xlink:href="#_R_G_L_0_G" fill="freeze"
                          attributeName="transform" from="0.29178000000000004 0.29178000000000004"
                          to="0.29178000000000004 0.29178000000000004" type="scale" additive="sum"
                          keyTimes="0;0.0833333;0.3166667;0.4333333;0.6666667;0.9333333;1"
                          values="0.29178000000000004 0.29178000000000004;0.29178000000000004 0.29178000000000004;0 0;0.34178 0.34178;0 0;0.29178000000000004 0.29178000000000004;0.29178000000000004 0.29178000000000004"
                          keySplines="0.167 0.167 0.833 0.833;0.167 0.167 0.833 0.833;0.167 0.167 0.833 0.833;0.167 0.167 0.833 0.833;0.167 0.167 0.833 0.833;0 0 0 0"
                          calcMode="spline"/>
        <animateTransform repeatCount="indefinite" dur="2s" begin="0s" xlink:href="#_R_G_L_0_G" fill="freeze"
                          attributeName="transform" from="-96.5 -122" to="-96.5 -122" type="translate" additive="sum"
                          keyTimes="0;1" values="-96.5 -122;-96.5 -122" keySplines="0 0 1 1" calcMode="spline"/>
        <animate attributeType="XML" attributeName="opacity" dur="2s" from="0" to="1" xlink:href="#time_group"/>
    </defs>
    <g id="_R_G">
        <g id="_R_G_L_6_G" transform=" translate(540, 540) translate(0, 0)"/>
        <g id="_R_G_L_5_G" transform=" translate(546, 216)">
            <path id="_R_G_L_5_G_D_0_P_0" fill="#ffffff" fill-opacity="1" fill-rule="nonzero"
                  d=" M352.87 732.5 C343.42,732.5 333.33,726.7 327.18,717.72 C320.67,708.23 318.43,696.7 316.97,685.65 C313.87,662.16 313.79,638.5 313.99,612.24 C314.03,606.89 314.08,601.54 314.13,596.19 C314.74,526.37 315.38,454.18 302.13,384.13 C294.8,345.39 292.54,312.41 295.22,283.31 C298.59,246.72 309.54,215.9 328.71,189.06 C347.1,163.31 372.27,141.88 401.49,127.11 C430.73,112.32 463.41,104.5 496,104.5 C537.28,104.5 577.34,116.7 611.85,139.79 C646.36,162.87 672.09,194.68 686.26,231.77 C693.44,250.57 697.77,271.72 699.9,298.31 C709.87,422.96 699.89,550.11 690.09,646.95 C687.65,671.02 678.76,711.76 660.89,711.76 C658.62,711.76 656.2,711.12 653.69,709.85 C645.22,705.57 643.6,694.72 643.29,690.25 C643.09,687.28 643.13,684.2 643.18,681.22 C643.26,676.08 643.34,670.76 642.16,665.57 C640.62,658.83 634.99,651.85 628.22,651.85 C627.29,651.85 626.35,651.98 625.43,652.25 C619.63,653.91 616.48,659.86 616.07,669.92 C615.5,684.25 613.64,700.9 604.21,715.76 C601.15,720.57 597.33,723.45 593.99,723.45 C593.44,723.45 592.88,723.37 592.34,723.23 C590.12,722.62 588.38,720.75 587.12,719.2 C580.08,710.53 577.21,699.36 574.43,688.56 C573.9,686.5 573.38,684.44 572.82,682.41 C567.78,663.92 553.94,644.02 535.45,644.02 C528.55,644.02 521.58,646.81 514.72,652.3 C504.36,660.6 498.38,672.83 493.89,683.69 C493,685.84 492.14,688 491.28,690.16 C487.64,699.3 483.88,708.74 478.08,716.82 C474.31,722.09 470.63,725.08 466.5,726.25 C465.31,726.58 464.08,726.75 462.83,726.75 C455.78,726.75 448.18,721.09 445.16,713.58 C441.93,705.57 442.68,696.52 443.39,687.76 C443.39,687.76 443.54,686.02 443.54,686.02 C444.28,676.72 444.63,666.06 439.36,657.29 C434.4,649.04 428.73,644.86 422.53,644.86 C413.14,644.86 404.9,654.47 399.64,662.52 C393.38,672.11 388.94,683.1 387.47,689.25 C383.33,706.49 375.57,729.7 356.01,732.29 C354.98,732.43 353.92,732.5 352.87,732.5z "/>
            <path id="_R_G_L_5_G_D_1_P_0" fill="#6e1284" fill-opacity="1" fill-rule="nonzero"
                  d=" M496 103 C496,103 496,106 496,106 C516.53,106 536.96,109.09 556.71,115.19 C576.01,121.14 594.28,129.84 611.02,141.04 C627.75,152.23 642.56,165.66 655.02,180.95 C667.78,196.59 677.82,213.87 684.85,232.31 C691.98,250.97 696.29,271.98 698.4,298.43 C702.67,351.84 703.61,408.83 701.26,472.69 C699.36,524.42 695.22,581.37 688.6,646.8 C688.25,650.24 686.25,668.21 681.14,684.22 C677.35,696.1 670.77,710.26 660.89,710.26 C658.86,710.26 656.66,709.68 654.37,708.52 C646.59,704.58 645.07,694.36 644.79,690.15 C644.59,687.24 644.63,684.33 644.68,681.25 C644.76,676.01 644.85,670.6 643.62,665.24 C641.98,658.02 636.02,650.35 628.22,650.35 C627.15,650.35 626.07,650.5 625.02,650.81 C618.52,652.67 615.01,659.08 614.57,669.86 C614.01,683.99 612.18,700.4 602.94,714.95 C600.8,718.34 597.32,721.95 593.99,721.95 C593.57,721.95 593.15,721.89 592.73,721.78 C591.32,721.39 589.95,720.31 588.28,718.25 C581.45,709.84 578.62,698.83 575.89,688.18 C575.37,686.16 574.83,684.06 574.27,682.02 C569.08,663 554.72,642.52 535.45,642.52 C528.2,642.52 520.91,645.42 513.78,651.13 C503.16,659.65 497.07,672.08 492.5,683.12 C491.61,685.28 490.73,687.48 489.88,689.61 C486.28,698.65 482.55,708.01 476.87,715.94 C473.34,720.85 469.82,723.75 466.1,724.8 C465.04,725.1 463.94,725.25 462.83,725.25 C456.36,725.25 449.36,719.99 446.55,713.02 C443.46,705.35 444.19,696.47 444.89,687.89 C444.89,687.89 445.03,686.14 445.03,686.14 C445.8,676.6 446.15,665.66 440.65,656.52 C435.39,647.79 429.3,643.36 422.53,643.36 C404.54,643.36 389.12,675.94 386.01,688.9 C381.98,705.71 374.46,728.33 355.81,730.81 C354.84,730.94 353.86,731 352.87,731 C343.9,731 334.3,725.46 328.42,716.88 C322.09,707.64 319.89,696.32 318.46,685.46 C315.37,662.06 315.29,638.46 315.49,612.25 C315.53,606.91 315.58,601.56 315.63,596.22 C316.25,526.32 316.89,454.04 303.61,383.85 C296.3,345.25 294.05,312.4 296.71,283.45 C300.06,247.13 310.92,216.55 329.93,189.93 C348.18,164.38 373.16,143.11 402.17,128.44 C431.2,113.76 463.65,106 496,106 C496,106 496,103 496,103z  M496 103 C429.08,103 365.25,135.32 327.49,188.19 C285.84,246.5 288.05,317.76 300.66,384.41 C314.88,459.59 313.08,536.15 312.49,612.23 C312.3,636.81 312.27,661.47 315.48,685.85 C316.99,697.27 319.35,708.95 325.94,718.57 C331.92,727.3 342.14,734 352.87,734 C353.98,734 355.09,733.93 356.2,733.78 C376.15,731.14 384.42,708.39 388.92,689.6 C391.89,677.23 406.68,646.36 422.53,646.36 C427.72,646.36 433.03,649.68 438.08,658.06 C443.04,666.31 442.8,676.42 442.04,685.9 C441.28,695.39 440.19,705.27 443.77,714.14 C446.84,721.76 454.65,728.25 462.83,728.25 C464.18,728.25 465.55,728.07 466.91,727.69 C472.2,726.2 476.19,722.04 479.3,717.69 C486.56,707.56 490.55,695.69 495.27,684.27 C500,672.85 505.82,661.36 515.66,653.48 C522.64,647.88 529.3,645.52 535.45,645.52 C553.02,645.52 566.45,664.75 571.37,682.8 C574.91,695.76 577.37,709.57 585.95,720.14 C587.54,722.1 589.45,723.99 591.94,724.67 C592.63,724.86 593.32,724.95 593.99,724.95 C598.69,724.95 602.87,720.67 605.48,716.56 C614.58,702.21 616.91,686.42 617.57,669.98 C617.83,663.52 619.37,655.55 625.84,653.69 C626.65,653.46 627.44,653.35 628.22,653.35 C634.25,653.35 639.31,659.82 640.7,665.91 C642.52,673.89 641.23,682.2 641.79,690.35 C642.35,698.51 645.47,707.38 653.02,711.19 C655.83,712.62 658.45,713.26 660.89,713.26 C682.94,713.26 690.24,660.31 691.58,647.1 C703.15,532.87 710.56,412.83 701.39,298.19 C699.55,275.12 695.73,252.37 687.66,231.24 C658.56,155.03 580.72,103 496,103 C496,103 496,103 496,103z "/>
        </g>
        <g id="_R_G_L_4_G" transform=" translate(526, 312)">
            <path id="_R_G_L_4_G_D_0_P_0" fill="#6e1284" fill-opacity="1" fill-rule="nonzero"
                  d=" M155.99 106.81 C155.99,132.09 138.7,160.32 120.31,160.32 C101.91,160.32 87,132.09 87,106.81 C87,81.52 101.91,68.76 120.31,68.76 C138.7,68.76 155.99,81.52 155.99,106.81z "/>
            <path id="_R_G_L_4_G_D_1_P_0" fill="#6e1284" fill-opacity="1" fill-rule="nonzero"
                  d=" M304 109.05 C304,134.34 286.71,162.56 268.31,162.56 C249.92,162.56 235.01,134.34 235.01,109.05 C235.01,83.77 249.92,71 268.31,71 C286.71,71 304,83.77 304,109.05z "/>
            <path id="_R_G_L_4_G_D_2_P_0" fill="#6e1284" fill-opacity="1" fill-rule="nonzero"
                  d=" M222.58 220.52 C221.91,233.13 218.16,245.45 212.85,252.02 C209.95,255.62 206.35,258.92 201.9,260.2 C194.36,262.35 186.18,258 181.47,251.74 C175.19,243.39 171.93,231.01 171.93,220.61 C171.93,201.52 183.19,180.19 197.08,180.19 C217.1,180.17 223.64,200.7 222.58,220.52z "/>
        </g>
        <g id="_R_G_L_3_G" transform=" translate(528, 804)">
            <path id="_R_G_L_3_G_D_0_P_0" fill="#e1c0fd" fill-opacity="1" fill-rule="nonzero"
                  d=" M17.3 268 C72.11,268 116.6,276.54 116.6,287.07 C116.6,297.6 72.11,306.14 17.3,306.14 C-37.5,306.14 -82,297.6 -82,287.07 C-82,276.54 -37.5,268 17.3,268z "/>
        </g>
        <g id="_R_G_L_2_G" transform=" translate(728, 256)">
            <path id="_R_G_L_2_G_D_0_P_0" fill="#6e1284" fill-opacity="1" fill-rule="nonzero"
                  d=" M89 45 C89,84.23 64.68,116.43 33.63,119.94 C62.89,122.96 86.28,151.43 89.19,187.37 C91.29,153 112.07,125.08 139.05,119.04 C110.59,112.67 89,81.96 89,45z "/>
        </g>
        <g id="_R_G_L_1_G" transform=" translate(326, 594)">
            <path id="_R_G_L_1_G_D_0_P_0" fill="#6e1284" fill-opacity="1" fill-rule="nonzero"
                  d=" M89 45 C89,84.23 64.68,116.43 33.63,119.94 C62.89,122.96 86.28,151.43 89.19,187.37 C91.29,153 112.07,125.08 139.05,119.04 C110.59,112.67 89,81.96 89,45z "/>
        </g>
        <g id="_R_G_L_0_G" transform=" translate(652, 344)">
            <path id="_R_G_L_0_G_D_0_P_0" fill="#6e1284" fill-opacity="1" fill-rule="nonzero"
                  d=" M89 45 C89,84.23 64.68,116.43 33.63,119.94 C62.89,122.96 86.28,151.43 89.19,187.37 C91.29,153 112.07,125.08 139.05,119.04 C110.59,112.67 89,81.96 89,45z "/>
        </g>
    </g>
    <g id="time_group"/>
</svg>