<svg width="944" height="101" viewBox="0 0 944 101" fill="none" xmlns="http://www.w3.org/2000/svg">
<g clip-path="url(#clip0_214_230)">
<path d="M34.4257 17.0011L37.7389 17.0928C40.3482 17.1579 42.9379 17.5624 45.4428 18.2959C52.2219 20.7403 55.5198 25.4687 55.3364 32.4811C55.2141 37.6143 53.7811 41.4948 51.0373 44.1226C51.0373 44.6344 51.4195 44.8865 52.1837 44.8788C57.74 47.7434 60.415 53.0561 60.2087 60.8171V62.6504C60.1475 66.7372 58.4623 70.9882 55.153 75.4034C44.6518 84.4248 31.4909 88.756 15.6703 88.3969H12.0018C12.7202 54.6183 10.393 32.313 5.02008 21.4812C17.9517 18.3264 27.7536 16.833 34.4257 17.0011ZM26.4008 31.8967C26.5096 35.7374 27.0675 39.5521 28.0631 43.2632C36.8676 41.1167 41.331 38.4432 41.4533 35.2425V33.4092C40.9643 32.512 40.228 31.7739 39.3319 31.2824C38.4358 30.7909 37.4174 30.5667 36.3976 30.6363C33.01 30.5131 29.6244 30.9269 26.3664 31.8623L26.4008 31.8967ZM28.1433 54.2745C28.9458 62.9904 29.5573 67.8983 29.9776 68.9983C39.5922 66.2559 44.4569 62.8185 44.5715 58.6859V57.1505C44.6327 54.645 42.8251 53.1516 39.149 52.6704H37.3147C34.1664 52.4079 31.003 52.948 28.1204 54.2402L28.1433 54.2745Z" fill="#383333"/>
<path d="M116.83 28.9978C116.654 29.479 108.102 38.4011 91.1734 55.7641L91.6205 56.4859C110.254 68.7767 119.91 75.3537 120.591 76.2169C119.994 76.2169 112.696 78.8141 98.6939 84.0085C98.1284 84.0696 92.53 78.2641 81.8989 66.592L81.5435 66.6837C81.6658 73.1614 81.8148 78.2641 81.9906 81.9918L82.2543 86.3803L67.3508 88.3969C65.8435 81.9331 64.987 75.3347 64.7943 68.7003L63.3957 47.033C63.2199 43.3052 63.0403 37.5761 62.8569 29.8457L84.7535 28.6999C84.272 32.3665 83.8249 37.2744 83.4122 43.4236H83.7675L84.4898 42.9768C89.2665 36.1477 93.0268 31.045 95.7705 27.6686C108.824 28.6159 115.844 29.0589 116.83 28.9978Z" fill="#383333"/>
<path d="M119.88 87.4115C119.874 87.3636 119.88 87.315 119.896 87.2694C119.911 87.2238 119.937 87.1824 119.972 87.1482C120.006 87.1141 120.047 87.0881 120.093 87.0722C120.138 87.0563 120.187 87.0509 120.235 87.0563C124.821 53.3388 129.716 32.1984 134.921 23.6354C139.463 24.7376 144.093 25.443 148.758 25.7437L151.67 25.9155L156.061 25.8239C165.232 55.004 169.264 74.1621 168.155 83.2981C164.754 83.2981 159.022 84.7456 150.959 87.6407C151.41 80.1241 149.828 66.0688 146.213 45.4746H145.456C142.395 55.3762 140.532 65.6087 139.908 75.9534C139.908 80.1318 139.774 84.7876 139.506 89.9209L139.415 91.7542C126.865 89.1112 120.354 87.6636 119.88 87.4115Z" fill="#383333"/>
<path d="M198.558 25.0562C195.838 36.3234 192.987 57.1964 190.006 87.6751L174.69 88.122C174.591 87.0599 174.38 86.0113 174.059 84.9939C173.341 74.7273 173.983 54.4502 175.985 24.1625L198.558 25.0562ZM179.069 53.2089C184.534 53.9728 194.447 54.0492 208.807 53.4381L210.24 62.6046C209.746 62.7744 209.267 62.9852 208.807 63.2348C204.092 64.4876 194.626 65.7098 180.411 66.9014L179.069 53.2089ZM200.702 41.6132C207.81 30.9571 215.9 26.1218 224.972 27.1072L227.838 27.4166C231.27 27.745 234.881 29.4447 238.672 32.5155C246.849 41.4681 250.289 52.3152 248.989 65.0567L248.806 66.7983C248.387 70.3372 247.5 73.8048 246.169 77.1107C239.658 88.7751 231.747 94.1222 222.438 93.1521L220.776 92.9688C215.984 92.4387 211.516 90.2927 208.108 86.8845C199.525 76.9999 195.864 66.0306 197.125 53.9766C197.685 49.7075 198.875 45.5449 200.656 41.6247L200.702 41.6132ZM213.576 56.3484L213.313 58.9036C213.221 68.1236 215.743 73.001 220.879 73.5357L221.556 73.6274C227.67 72.8635 230.998 69.8653 231.541 64.6327L231.633 60.8744C229.34 51.9218 226.027 47.2239 221.693 46.7809C217.612 46.3225 214.906 49.5117 213.576 56.3484Z" fill="#383333"/>
<path d="M296.589 27.0614C296.142 38.262 294.215 49.3543 290.857 60.0494C290.114 61.9775 289.169 63.8212 288.036 65.5494C290.421 74.7159 283.821 77.252 268.238 73.1576C262.809 71.3816 257.975 68.1469 254.263 63.8077C252.559 56.9328 254.037 42.9997 258.7 22.0083L259.238 20.4386L263.893 22.1C265.681 22.6653 269.086 23.8111 274.107 25.5374C272.495 31.2054 270.584 40.5896 268.375 53.6902C268.818 54.7271 269.55 55.6143 270.485 56.2453C272.685 58.0861 275.202 59.511 277.913 60.4505C279.075 60.2748 279.656 57.7693 279.656 52.9339L280.459 49.6225C280.818 44.4893 281.372 36.7015 282.121 26.2593C286.915 26.9001 291.753 27.1682 296.589 27.0614ZM301.117 28.0468C299.833 41.0327 297.265 61.8751 293.413 90.574C288.362 88.8923 282.957 88.5682 277.742 89.6344L277.34 87.3428C277.791 77.7638 279.507 57.4141 282.488 26.2937L301.117 28.0468Z" fill="#383333"/>
<path d="M353.634 39.5622C350.914 59.5529 348.093 75.0826 345.174 86.1512C344.035 86.1512 338.976 85.6585 329.995 84.673C332.472 71.4885 333.71 63.2959 333.71 60.0953V59.7401H332.953C326.594 73.8565 322.891 83.2713 321.844 87.9845L303.398 86.1512C302.917 76.9846 302.68 67.0771 302.688 56.4287V46.1851C302.863 37.1407 303.46 32.6186 304.476 32.6186C306.478 32.6186 312.765 33.096 323.335 34.0508V34.4519C321.875 44.833 320.904 52.8881 320.423 58.6172H321.145C325.264 48.6868 329.816 39.0352 334.799 29.6624H335.555C346.859 35.4296 352.885 38.7296 353.634 39.5622Z" fill="#383333"/>
<path d="M354.586 47.9382C356.795 31.6752 365.079 22.6653 379.44 20.9083L380.197 20.8167C385.104 20.2602 390.065 20.4107 394.928 21.2635C390.717 29.0245 388.807 34.5436 389.196 37.8206V38.2216C387.037 37.5654 384.776 37.3092 382.524 37.4654C381.129 37.5975 379.782 38.0399 378.58 38.7602C371.297 43.5955 368.148 50.2489 369.134 58.7203C369.557 60.8322 370.332 62.858 371.427 64.7129C372.621 66.5445 374.326 67.9868 376.33 68.8623C378.335 69.7378 380.551 70.0081 382.708 69.6399L397.302 64.8733H397.657C396.208 70.9524 395.82 77.236 396.51 83.447L397.187 85.9564C394.737 87.109 392.093 87.793 389.391 87.973L388.245 88.1563C383.202 88.7647 378.089 87.9717 373.467 85.8647C362.424 79.6315 356.095 70.083 354.483 57.2193C354.092 54.1354 354.127 51.0126 354.586 47.9382Z" fill="#383333"/>
<path d="M403.034 86.1168C402.071 66.508 401.039 52.5138 399.938 44.134L398.998 37.1102C398.853 35.888 398.494 33.9172 397.921 31.1978C403.393 29.9374 408.777 28.3222 414.039 26.3624C414.398 36.7741 414.861 44.2028 415.426 48.6486C415.732 48.8013 416.07 48.8798 416.412 48.8777C417.237 48.7728 418.039 48.5328 418.785 48.1673C429.485 46.6396 437.231 50.3978 442.023 59.4422C443.094 62.2065 443.888 65.0696 444.396 67.9899C445.65 77.5079 440.8 83.9244 429.848 87.2397C429.848 87.4765 428.744 87.7438 426.535 88.0417L423.486 88.4886C416.578 89.5159 409.522 88.6976 403.034 86.1168ZM421.376 74.8878C426.596 73.5433 428.985 71.1868 428.541 67.8181V67.4629C427.915 62.9254 424.586 60.5536 418.556 60.3474L417.352 60.5307C416.963 60.5918 416.814 60.9737 416.905 61.6765C417.173 63.7924 417.44 68.1504 417.708 74.7503C418.918 75.0021 420.163 75.0447 421.388 74.8763L421.376 74.8878Z" fill="#383333"/>
<path d="M495.102 17.0011L498.416 17.0928C501.025 17.1579 503.615 17.5624 506.12 18.2959C512.899 20.7403 516.197 25.4687 516.013 32.4811C515.891 37.6143 514.458 41.4948 511.714 44.1226C511.714 44.6344 512.096 44.8865 512.86 44.8788C518.417 47.7434 521.092 53.0561 520.885 60.8171V62.6504C520.824 66.7372 519.139 70.9882 515.83 75.4034C505.328 84.4248 492.164 88.756 476.336 88.3969H472.667C473.385 54.6183 471.058 32.313 465.685 21.4812C478.64 18.3264 488.446 16.833 495.102 17.0011ZM487.078 31.8967C487.181 35.7249 487.732 39.528 488.717 43.2288C497.521 41.0823 501.985 38.4088 502.107 35.2081V33.3748C501.618 32.4776 500.882 31.7395 499.986 31.248C499.09 30.7565 498.071 30.5323 497.051 30.6019C493.67 30.4923 490.292 30.9177 487.043 31.8623L487.078 31.8967ZM488.82 54.2745C489.623 62.9904 490.234 67.8983 490.654 68.9983C500.269 66.2559 505.134 62.8185 505.248 58.6859V57.1505C505.309 54.645 503.502 53.1516 499.826 52.6704H497.991C494.839 52.406 491.672 52.9461 488.786 54.2402L488.82 54.2745Z" fill="#383333"/>
<path d="M641.385 47.9382C643.594 31.6752 651.879 22.6653 666.24 20.9083L666.996 20.8167C671.903 20.2602 676.864 20.4107 681.728 21.2635C677.517 29.0245 675.606 34.5436 675.996 37.8206V38.2216C673.836 37.5654 671.575 37.3092 669.324 37.4654C667.929 37.5975 666.581 38.0399 665.38 38.7602C658.096 43.5955 654.948 50.2489 655.933 58.7203C656.356 60.8322 657.131 62.858 658.226 64.7129C659.421 66.5445 661.125 67.9868 663.13 68.8623C665.134 69.7378 667.351 70.0081 669.507 69.6399L684.147 64.8733H684.502C683.053 70.9524 682.665 77.236 683.356 83.447L684.032 85.9564C681.582 87.109 678.938 87.793 676.237 87.973L675.09 88.1563C670.047 88.7647 664.934 87.9717 660.313 85.8647C649.269 79.6315 642.941 70.083 641.328 57.2193C640.923 54.1375 640.942 51.0147 641.385 47.9382Z" fill="#383333"/>
<path d="M715.18 24.0822L719.124 23.4062C719.927 29.5172 720.63 34.3526 721.233 37.9123L721.589 39.7456C714.932 40.3414 710.438 40.8646 708.107 41.3153L703.361 42.1174C702.847 42.1557 702.36 42.361 701.974 42.7018C702.332 44.7752 702.826 46.8229 703.453 48.8319L703.636 50.1725L704.175 50.9287C707.665 49.896 711.054 48.546 714.298 46.8955C716.476 55.2523 717.76 59.7439 718.15 60.3703C714.727 61.8581 711.152 62.9685 707.488 63.6817L706.009 63.9452L705.378 64.3921L707.843 72.1836C716.35 69.976 722.961 68.1122 727.676 66.5921C729.679 75.2162 731.051 81.6634 731.792 85.9334C725.433 87.0411 712.567 87.9081 693.192 88.5345C693.612 82.538 693.001 74.8228 691.358 65.3889C689.569 55.069 687.277 44.5351 684.479 33.7873C694.279 29.3134 704.589 26.0541 715.18 24.0822Z" fill="#383333"/>
<path d="M735.965 24.1166C763.433 20.9236 779.823 19.3271 785.135 19.3271C785.609 26.0721 786.461 33.413 787.691 41.3497H780.343C776.063 41.4178 771.783 41.1804 767.537 40.6393L767.136 41.3612V42.083C767.136 50.1725 767.388 65.7021 767.893 88.6719C767.893 89.39 763.25 90.0011 753.964 90.5053C752.968 90.4589 751.978 90.3247 751.006 90.1042V85.0053C751.006 67.8792 750.154 53.8238 748.449 42.8393C743.482 42.9518 738.548 43.6871 733.764 45.0278V40.2383C733.764 33.287 734.497 27.9131 735.965 24.1166Z" fill="#383333"/>
<path d="M841.642 39.5622C838.921 59.5529 836.101 75.0826 833.181 86.1512C832.042 86.1512 826.983 85.6585 818.003 84.673C820.479 71.4885 821.717 63.2959 821.717 60.0953V59.7401H820.96C814.602 73.8565 810.899 83.2713 809.852 87.9845L791.371 86.1512C790.89 76.9846 790.653 67.0771 790.661 56.4287V46.1851C790.836 37.1407 791.432 32.6186 792.449 32.6186C794.451 32.6186 800.738 33.096 811.308 34.0508V34.4519C809.848 44.833 808.877 52.8881 808.396 58.6172H809.118C813.237 48.6868 817.789 39.0352 822.772 29.6624H823.528C834.863 35.4296 840.9 38.7296 841.642 39.5622Z" fill="#383333"/>
<path d="M869.821 25.0562C867.1 36.3234 864.261 57.1964 861.303 87.6751L845.987 88.122C845.888 87.0599 845.677 86.0113 845.356 84.9939C844.638 74.7273 845.28 54.4502 847.282 24.1625L869.821 25.0562ZM850.332 53.2089C855.796 53.9728 865.709 54.0492 880.07 53.4381L881.503 62.6046C881.008 62.7744 880.529 62.9852 880.07 63.2348C875.354 64.4876 865.888 65.7098 851.673 66.9014L850.332 53.2089ZM871.964 41.6132C879.072 30.9571 887.162 26.1218 896.234 27.1072L899.1 27.4166C902.532 27.745 906.143 29.4447 909.934 32.5155C918.112 41.4681 921.551 52.3152 920.252 65.0567L920.068 66.7983C919.649 70.3372 918.763 73.8048 917.431 77.1107C910.92 88.7751 903.009 94.1222 893.701 93.1521L892.038 92.9688C887.246 92.4387 882.778 90.2927 879.37 86.8845C870.864 77.0075 867.222 66.0421 868.445 53.9881C868.985 49.718 870.156 45.5516 871.919 41.6247L871.964 41.6132ZM884.862 56.337L884.598 58.8922C884.506 68.1122 887.028 72.9895 892.164 73.5242L892.841 73.6159C898.955 72.852 902.283 69.8538 902.826 64.6212L902.918 60.863C900.625 51.9103 897.312 47.2125 892.978 46.7694C888.882 46.3187 886.161 49.5117 884.816 56.3484L884.862 56.337Z" fill="#383333"/>
<path d="M943.971 34.8644V68.9754H933.309L929.285 34.8644H943.971ZM942.492 75.9075V82.5304H932.599V73.3638L942.492 75.9075Z" fill="#383333"/>
<path d="M612.381 5.07314C605.441 1.49056 599.037 -0.300739 593.167 -0.300739H588.192C569.7 -0.300739 551.139 13.0595 546.749 31.2894C541.853 51.6048 554.315 70.5566 569.986 82.2095C576.77 86.3868 584.592 88.5745 592.559 88.523H595.334C611.322 88.523 623.796 80.2196 632.753 63.6129C634.463 59.0829 635.378 54.2918 635.458 49.4506V47.159C635.458 29.9412 627.766 15.9126 612.381 5.07314ZM618.113 53.1975C613.012 68.5743 594.669 73.9138 580.889 66.7639C575.527 63.8521 571.183 59.3732 568.438 53.9264C565.692 48.4795 564.677 42.3246 565.527 36.2852C566.467 29.2041 570.823 20.1865 578.138 17.7803C588.558 14.4001 603.485 18.4677 611.086 26.1676C617.849 32.9852 621.243 43.9049 618.17 53.1975H618.113Z" fill="#383333"/>
<path d="M593.029 67.1535C605.813 67.1535 616.176 56.796 616.176 44.0195C616.176 31.2429 605.813 20.8854 593.029 20.8854C580.246 20.8854 569.883 31.2429 569.883 44.0195C569.883 56.796 580.246 67.1535 593.029 67.1535Z" fill="#F7BEBE"/>
<path d="M593.029 66.191C605.281 66.191 615.213 56.2645 615.213 44.0195C615.213 31.7745 605.281 21.8479 593.029 21.8479C580.778 21.8479 570.846 31.7745 570.846 44.0195C570.846 56.2645 580.778 66.191 593.029 66.191Z" fill="#B30000"/>
<path d="M593.029 63.1661C603.609 63.1661 612.186 54.5938 612.186 44.0195C612.186 33.4451 603.609 24.8729 593.029 24.8729C582.45 24.8729 573.873 33.4451 573.873 44.0195C573.873 54.5938 582.45 63.1661 593.029 63.1661Z" fill="#F7BEBE"/>
<path d="M593.029 61.6765C602.786 61.6765 610.696 53.7712 610.696 44.0195C610.696 34.2677 602.786 26.3624 593.029 26.3624C583.273 26.3624 575.363 34.2677 575.363 44.0195C575.363 53.7712 583.273 61.6765 593.029 61.6765Z" fill="#6E1818"/>
<path d="M593.029 59.7744C601.735 59.7744 608.793 52.7207 608.793 44.0195C608.793 35.3182 601.735 28.2645 593.029 28.2645C584.324 28.2645 577.266 35.3182 577.266 44.0195C577.266 52.7207 584.324 59.7744 593.029 59.7744Z" fill="#B30000"/>
</g>
<defs>
<clipPath id="clip0_214_230">
<rect width="944" height="101" fill="white"/>
</clipPath>
</defs>
</svg>
