<svg id="_Слой_2" data-name="Слой 2" xmlns="http://www.w3.org/2000/svg" viewBox="0 0 537.83 150.24">
  <defs>
    <style>
      .cls-1 {
        fill: #fff;
      }
    </style>
  </defs>
  <g id="_Слой_1-2" data-name="Слой 1">
    <path class="cls-1" transform="scale (-1, 1)" transform-origin="center" d="m11.84,147.28C4.56,143.47.05,135.81,0,128.67c0-.12.01-.24.04-.36,4.36-18.25,7.02-37.47,14.28-55.14,6.45-15.7,20.27-37.91,42.38-39.54L512.7.07c18.9-1.39,29.45,17.76,23.46,42.56l-11.43,47.24c-6,24.8-26.37,46.23-45.27,47.62-75.3,3.13-150.63,5.9-225.96,8.32-74.03,2.38-147.97,4.01-222.05,4.42-5.05.03-10.19.05-15.03-1.2-1.62-.42-3.15-1.01-4.58-1.76Z"/>
  </g>
</svg>
