<svg width="1920" height="1080" viewBox="0 0 1920 1080" fill="none" xmlns="http://www.w3.org/2000/svg">
<g clip-path="url(#clip0_81_80994)">
<rect width="1920" height="1080" fill="white"/>
<path d="M384.5 501.604C216.9 648.804 27 550.437 -47 478.604L-66 269.104L-25.5 -77.3961C346.667 -98.5628 1097.7 -116.396 1124.5 -18.3961C1158 104.104 843.5 91.6039 661.5 161.604C479.5 231.604 532.5 371.618 384.5 501.604Z" fill="url(#paint0_linear_81_80994)" fill-opacity="0.2"/>
<path d="M1625.95 306.38C1751.77 71.4272 1979.07 152.454 2078.35 227.902L2164.89 497.48L2233.85 961.447C1856.77 1082.83 1159.16 1209.6 1028.9 1173.61C490.507 1024.86 765.368 548.388 1003.25 468.387C1176.01 410.287 1514.85 513.857 1625.95 306.38Z" fill="url(#paint1_linear_81_80994)" fill-opacity="0.2"/>
</g>
<defs>
<linearGradient id="paint0_linear_81_80994" x1="-81" y1="-124.5" x2="683.5" y2="387.5" gradientUnits="userSpaceOnUse">
<stop stop-color="#B91D42"/>
<stop offset="0.458333" stop-color="#FFF500"/>
<stop offset="1" stop-color="#FFF500" stop-opacity="0"/>
</linearGradient>
<linearGradient id="paint1_linear_81_80994" x1="1665.72" y1="1123.12" x2="1450.98" y2="243.123" gradientUnits="userSpaceOnUse">
<stop stop-color="#FFF500"/>
<stop offset="1" stop-color="#FFF500" stop-opacity="0"/>
</linearGradient>
<clipPath id="clip0_81_80994">
<rect width="1920" height="1080" fill="white"/>
</clipPath>
</defs>
</svg>
