<svg width="566" height="211" viewBox="0 0 566 211" fill="none" xmlns="http://www.w3.org/2000/svg">
<path d="M534.34 207.71C542.11 203.53 547.34 194.52 547.88 185.87C547.895 185.724 547.895 185.576 547.88 185.43C544.69 163.09 543.33 139.68 537.12 117.87C531.6 98.49 518.96 70.81 496.29 67.56L28.86 0.470004C9.49003 -2.31 -2.75997 20.26 1.65003 50.62L10 108.44C14.41 138.8 33.86 165.92 53.23 168.7C130.563 176.86 207.967 184.59 285.44 191.89C361.54 199.07 437.61 205.34 513.9 210.14C519.1 210.47 524.4 210.79 529.47 209.56C531.166 209.156 532.803 208.534 534.34 207.71Z" fill="white"/>
<path d="M563.35 78.32C556.878 76.8272 550.262 76.0492 543.62 76C533.2 76 522.62 78.19 513.56 83.27C504.76 69.98 492.71 60.7 481.25 59.84L44.19 27.14C26.08 25.78 16.05 46 21.91 72L33.07 121.57C38.93 147.57 58.55 169.99 76.66 171.35C76.66 171.35 517.58 205.45 517.06 204.03C533.06 202.81 541.5 183.56 536.01 159.18L525.47 112.37C535.67 99.23 549.54 84.72 563.22 82.45C563.706 82.3772 564.152 82.136 564.478 81.7686C564.805 81.4011 564.992 80.9307 565.008 80.4392C565.023 79.9478 564.866 79.4665 564.563 79.0792C564.26 78.6919 563.831 78.4233 563.35 78.32ZM514.13 84.11L513.7 83.45L520.42 81.65C518.72 82.23 517.03 82.85 515.42 83.53C514.978 83.6944 514.547 83.8881 514.13 84.11Z" fill="#FFEC00"/>
<path d="M90.9522 69.66H102.172V83H99.0922V72.26H94.0322V83H90.9522V69.66Z" fill="black"/>
<path d="M107.633 81.98V87.58H104.753V74.08H107.633V75.14C108.326 74.2333 109.253 73.78 110.413 73.78C111.68 73.78 112.733 74.2 113.573 75.04C114.466 75.9333 114.913 77.0933 114.913 78.52C114.913 79.96 114.44 81.1533 113.493 82.1C112.693 82.9 111.686 83.3 110.473 83.3C109.206 83.3 108.26 82.86 107.633 81.98ZM109.713 76.26C109.086 76.26 108.553 76.48 108.113 76.92C107.66 77.3733 107.433 77.92 107.433 78.56C107.433 79.16 107.646 79.6867 108.073 80.14C108.526 80.5933 109.073 80.82 109.713 80.82C110.3 80.82 110.813 80.6133 111.253 80.2C111.72 79.76 111.953 79.1933 111.953 78.5C111.953 77.8467 111.726 77.3067 111.273 76.88C110.833 76.4667 110.313 76.26 109.713 76.26Z" fill="black"/>
<path d="M116.706 74.08H119.586V79.18L123.386 74.08H126.066V83H123.186V77.82L119.386 83H116.706V74.08Z" fill="black"/>
<path d="M128.308 74.08H133.088C134.114 74.08 134.854 74.2733 135.308 74.66C135.788 75.0733 136.028 75.6533 136.028 76.4C136.028 77 135.848 77.48 135.488 77.84C135.301 78.0533 135.054 78.2133 134.748 78.32C135.268 78.4267 135.701 78.64 136.048 78.96C136.434 79.3467 136.628 79.8533 136.628 80.48C136.628 81.1867 136.408 81.76 135.968 82.2C135.434 82.7333 134.694 83 133.748 83H128.308V74.08ZM131.188 77.64H132.368C132.674 77.64 132.914 77.58 133.088 77.46C133.288 77.3133 133.388 77.0933 133.388 76.8C133.388 76.5333 133.301 76.3267 133.128 76.18C132.968 76.06 132.701 76 132.328 76H131.188V77.64ZM131.188 81.08H132.488C132.888 81.08 133.174 81 133.348 80.84C133.534 80.68 133.628 80.4467 133.628 80.14C133.628 79.8867 133.534 79.68 133.348 79.52C133.161 79.36 132.834 79.28 132.368 79.28H131.188V81.08Z" fill="black"/>
<path d="M140.927 77.32H144.827C144.72 76.8933 144.527 76.5467 144.247 76.28C143.887 75.9467 143.433 75.78 142.887 75.78C142.3 75.78 141.813 75.9733 141.427 76.36C141.16 76.64 140.993 76.96 140.927 77.32ZM147.487 78.74V79.04H140.827C140.827 79.6533 141.007 80.16 141.367 80.56C141.713 80.9333 142.207 81.12 142.847 81.12C143.327 81.12 143.713 81.0333 144.007 80.86C144.233 80.74 144.44 80.4933 144.627 80.12L147.347 80.4C147.04 81.3733 146.467 82.12 145.627 82.64C144.893 83.08 143.953 83.3 142.807 83.3C141.287 83.3 140.1 82.8733 139.247 82.02C138.353 81.1267 137.907 79.98 137.907 78.58C137.907 77.1667 138.36 75.9933 139.267 75.06C140.12 74.2067 141.26 73.78 142.687 73.78C144.193 73.78 145.373 74.2267 146.227 75.12C147.067 76.0133 147.487 77.22 147.487 78.74Z" fill="black"/>
<path d="M156.004 76.4H153.604V83H150.724V76.4H148.324V74.08H156.004V76.4Z" fill="black"/>
<path d="M155.832 85.56L158.032 79.92L160.652 80.06L157.632 85.64L155.832 85.56Z" fill="black"/>
<path d="M167.391 83L169.951 79.78C169.338 79.6733 168.825 79.4133 168.411 79C167.958 78.56 167.731 77.96 167.731 77.2C167.731 76.28 168.005 75.5467 168.551 75C169.178 74.3867 170.158 74.08 171.491 74.08H175.751V83H172.871V80.02H172.591L170.511 83H167.391ZM172.871 78.14V76.12H171.851C171.438 76.12 171.138 76.1933 170.951 76.34C170.725 76.5267 170.611 76.8 170.611 77.16C170.611 77.44 170.705 77.6733 170.891 77.86C171.105 78.0467 171.445 78.14 171.911 78.14H172.871Z" fill="black"/>
<path d="M191.843 83L190.843 80.48H185.803L184.783 83H181.583L186.963 69.66H189.783L195.043 83H191.843ZM186.703 78.12H190.003L188.363 73.64L186.703 78.12Z" fill="black"/>
<path d="M205.348 74.08V83H202.468V76.4H200.128V79.14C200.128 80.5 199.835 81.5133 199.248 82.18C198.675 82.8067 197.855 83.12 196.788 83.12C196.401 83.12 196.028 83.0733 195.668 82.98V80.7C196.281 80.8733 196.741 80.7867 197.048 80.44C197.288 80.12 197.408 79.6467 197.408 79.02V74.08H205.348Z" fill="black"/>
<path d="M214.425 75.08V74.08H217.305V83H214.425V81.92C213.825 82.84 212.945 83.3 211.785 83.3C210.412 83.3 209.298 82.8467 208.445 81.94C207.578 81.02 207.145 79.9067 207.145 78.6C207.145 77.12 207.605 75.92 208.525 75C209.338 74.1867 210.372 73.78 211.625 73.78C212.852 73.78 213.785 74.2133 214.425 75.08ZM212.345 76.26C211.718 76.26 211.192 76.4733 210.765 76.9C210.325 77.34 210.105 77.88 210.105 78.52C210.105 79.16 210.305 79.6933 210.705 80.12C211.145 80.5867 211.712 80.82 212.405 80.82C212.992 80.82 213.492 80.6133 213.905 80.2C214.372 79.76 214.605 79.2 214.605 78.52C214.605 77.84 214.385 77.2933 213.945 76.88C213.518 76.4667 212.985 76.26 212.345 76.26Z" fill="black"/>
<path d="M219.538 83V74.08H222.418V77.18H225.638V74.08H228.518V83H225.638V79.5H222.418V83H219.538Z" fill="black"/>
<path d="M230.749 83V74.08H233.629V77.62L236.549 74.08H240.129L236.309 78.22L240.389 83H236.669L233.629 79.04V83H230.749Z" fill="black"/>
<path d="M248.39 75.08V74.08H251.27V83H248.39V81.92C247.79 82.84 246.91 83.3 245.75 83.3C244.376 83.3 243.263 82.8467 242.41 81.94C241.543 81.02 241.11 79.9067 241.11 78.6C241.11 77.12 241.57 75.92 242.49 75C243.303 74.1867 244.336 73.78 245.59 73.78C246.816 73.78 247.75 74.2133 248.39 75.08ZM246.31 76.26C245.683 76.26 245.156 76.4733 244.73 76.9C244.29 77.34 244.07 77.88 244.07 78.52C244.07 79.16 244.27 79.6933 244.67 80.12C245.11 80.5867 245.676 80.82 246.37 80.82C246.956 80.82 247.456 80.6133 247.87 80.2C248.336 79.76 248.57 79.2 248.57 78.52C248.57 77.84 248.35 77.2933 247.91 76.88C247.483 76.4667 246.95 76.26 246.31 76.26Z" fill="black"/>
<path d="M256.643 78.7H253.683V69.66H256.643V78.7ZM253.863 82.8C253.516 82.44 253.343 82.0067 253.343 81.5C253.343 80.9933 253.516 80.5667 253.863 80.22C254.223 79.86 254.656 79.68 255.163 79.68C255.67 79.68 256.096 79.86 256.443 80.22C256.803 80.5667 256.983 80.9933 256.983 81.5C256.983 82.0067 256.803 82.44 256.443 82.8C256.096 83.1467 255.67 83.32 255.163 83.32C254.656 83.32 254.223 83.1467 253.863 82.8Z" fill="black"/>
<path d="M265.377 69.66H274.937V80.44H276.437V86H273.677V83H265.497V86H262.737V80.44C263.364 80.32 263.864 80.0733 264.237 79.7C264.584 79.38 264.844 78.94 265.017 78.38C265.204 77.8067 265.311 77.32 265.337 76.92C265.364 76.5067 265.377 75.9667 265.377 75.3V69.66ZM268.337 72.22V75.2C268.337 76.64 268.251 77.68 268.077 78.32C267.851 79.1467 267.451 79.8533 266.877 80.44H271.897V72.22H268.337Z" fill="black"/>
<path d="M284.601 75.08V74.08H287.481V83H284.601V81.92C284.001 82.84 283.121 83.3 281.961 83.3C280.587 83.3 279.474 82.8467 278.621 81.94C277.754 81.02 277.321 79.9067 277.321 78.6C277.321 77.12 277.781 75.92 278.701 75C279.514 74.1867 280.547 73.78 281.801 73.78C283.027 73.78 283.961 74.2133 284.601 75.08ZM282.521 76.26C281.894 76.26 281.367 76.4733 280.941 76.9C280.501 77.34 280.281 77.88 280.281 78.52C280.281 79.16 280.481 79.6933 280.881 80.12C281.321 80.5867 281.887 80.82 282.581 80.82C283.167 80.82 283.667 80.6133 284.081 80.2C284.547 79.76 284.781 79.2 284.781 78.52C284.781 77.84 284.561 77.2933 284.121 76.88C283.694 76.4667 283.161 76.26 282.521 76.26Z" fill="black"/>
<path d="M289.714 74.08H294.494C295.52 74.08 296.26 74.2733 296.714 74.66C297.194 75.0733 297.434 75.6533 297.434 76.4C297.434 77 297.254 77.48 296.894 77.84C296.707 78.0533 296.46 78.2133 296.154 78.32C296.674 78.4267 297.107 78.64 297.454 78.96C297.84 79.3467 298.034 79.8533 298.034 80.48C298.034 81.1867 297.814 81.76 297.374 82.2C296.84 82.7333 296.1 83 295.154 83H289.714V74.08ZM292.594 77.64H293.774C294.08 77.64 294.32 77.58 294.494 77.46C294.694 77.3133 294.794 77.0933 294.794 76.8C294.794 76.5333 294.707 76.3267 294.534 76.18C294.374 76.06 294.107 76 293.734 76H292.594V77.64ZM292.594 81.08H293.894C294.294 81.08 294.58 81 294.754 80.84C294.94 80.68 295.034 80.4467 295.034 80.14C295.034 79.8867 294.94 79.68 294.754 79.52C294.567 79.36 294.24 79.28 293.774 79.28H292.594V81.08Z" fill="black"/>
<path d="M306.593 75.08V74.08H309.473V83H306.593V81.92C305.993 82.84 305.113 83.3 303.953 83.3C302.58 83.3 301.466 82.8467 300.613 81.94C299.746 81.02 299.313 79.9067 299.313 78.6C299.313 77.12 299.773 75.92 300.693 75C301.506 74.1867 302.54 73.78 303.793 73.78C305.02 73.78 305.953 74.2133 306.593 75.08ZM304.513 76.26C303.886 76.26 303.359 76.4733 302.933 76.9C302.493 77.34 302.273 77.88 302.273 78.52C302.273 79.16 302.473 79.6933 302.873 80.12C303.313 80.5867 303.88 80.82 304.573 80.82C305.16 80.82 305.66 80.6133 306.073 80.2C306.54 79.76 306.773 79.2 306.773 78.52C306.773 77.84 306.553 77.2933 306.113 76.88C305.686 76.4667 305.153 76.26 304.513 76.26Z" fill="black"/>
<path d="M311.706 74.08H314.586V79.18L318.386 74.08H321.066V83H318.186V77.82L314.386 83H311.706V74.08ZM318.006 69.7L320.006 70.48C319.753 71.2267 319.326 71.7933 318.726 72.18C318.153 72.5533 317.373 72.74 316.386 72.74C315.399 72.74 314.619 72.5533 314.046 72.18C313.446 71.7933 313.019 71.2267 312.766 70.48L314.766 69.7C314.846 70.0867 315.019 70.3933 315.286 70.62C315.566 70.86 315.933 70.98 316.386 70.98C316.839 70.98 317.206 70.86 317.486 70.62C317.753 70.3933 317.926 70.0867 318.006 69.7Z" fill="black"/>
<path d="M330.028 76.4H327.628V83H324.748V76.4H322.348V74.08H330.028V76.4Z" fill="black"/>
<path d="M333.895 77.32H337.795C337.689 76.8933 337.495 76.5467 337.215 76.28C336.855 75.9467 336.402 75.78 335.855 75.78C335.269 75.78 334.782 75.9733 334.395 76.36C334.129 76.64 333.962 76.96 333.895 77.32ZM340.455 78.74V79.04H333.795C333.795 79.6533 333.975 80.16 334.335 80.56C334.682 80.9333 335.175 81.12 335.815 81.12C336.295 81.12 336.682 81.0333 336.975 80.86C337.202 80.74 337.409 80.4933 337.595 80.12L340.315 80.4C340.009 81.3733 339.435 82.12 338.595 82.64C337.862 83.08 336.922 83.3 335.775 83.3C334.255 83.3 333.069 82.8733 332.215 82.02C331.322 81.1267 330.875 79.98 330.875 78.58C330.875 77.1667 331.329 75.9933 332.235 75.06C333.089 74.2067 334.229 73.78 335.655 73.78C337.162 73.78 338.342 74.2267 339.195 75.12C340.035 76.0133 340.455 77.22 340.455 78.74Z" fill="black"/>
<path d="M346.921 83V74.08H355.781V83H352.901V76.4H349.801V83H346.921Z" fill="black"/>
<path d="M360.895 81.98V87.58H358.015V74.08H360.895V75.14C361.588 74.2333 362.515 73.78 363.675 73.78C364.941 73.78 365.995 74.2 366.835 75.04C367.728 75.9333 368.175 77.0933 368.175 78.52C368.175 79.96 367.701 81.1533 366.755 82.1C365.955 82.9 364.948 83.3 363.735 83.3C362.468 83.3 361.521 82.86 360.895 81.98ZM362.975 76.26C362.348 76.26 361.815 76.48 361.375 76.92C360.921 77.3733 360.695 77.92 360.695 78.56C360.695 79.16 360.908 79.6867 361.335 80.14C361.788 80.5933 362.335 80.82 362.975 80.82C363.561 80.82 364.075 80.6133 364.515 80.2C364.981 79.76 365.215 79.1933 365.215 78.5C365.215 77.8467 364.988 77.3067 364.535 76.88C364.095 76.4667 363.575 76.26 362.975 76.26Z" fill="black"/>
<path d="M378.668 75.22C379.561 76.1133 380.008 77.22 380.008 78.54C380.008 79.86 379.561 80.9667 378.668 81.86C377.708 82.82 376.408 83.3 374.768 83.3C373.128 83.3 371.828 82.82 370.868 81.86C369.974 80.9667 369.528 79.86 369.528 78.54C369.528 77.22 369.974 76.1133 370.868 75.22C371.828 74.26 373.128 73.78 374.768 73.78C376.408 73.78 377.708 74.26 378.668 75.22ZM376.388 76.86C375.961 76.4333 375.421 76.22 374.768 76.22C374.114 76.22 373.574 76.4333 373.148 76.86C372.708 77.3 372.488 77.86 372.488 78.54C372.488 79.22 372.708 79.78 373.148 80.22C373.574 80.6467 374.121 80.86 374.788 80.86C375.428 80.86 375.961 80.6467 376.388 80.22C376.828 79.78 377.048 79.22 377.048 78.54C377.048 77.86 376.828 77.3 376.388 76.86Z" fill="black"/>
<path d="M381.804 74.08H386.584C387.61 74.08 388.35 74.2733 388.804 74.66C389.284 75.0733 389.524 75.6533 389.524 76.4C389.524 77 389.344 77.48 388.984 77.84C388.797 78.0533 388.55 78.2133 388.244 78.32C388.764 78.4267 389.197 78.64 389.544 78.96C389.93 79.3467 390.124 79.8533 390.124 80.48C390.124 81.1867 389.904 81.76 389.464 82.2C388.93 82.7333 388.19 83 387.244 83H381.804V74.08ZM384.684 77.64H385.864C386.17 77.64 386.41 77.58 386.584 77.46C386.784 77.3133 386.884 77.0933 386.884 76.8C386.884 76.5333 386.797 76.3267 386.624 76.18C386.464 76.06 386.197 76 385.824 76H384.684V77.64ZM384.684 81.08H385.984C386.384 81.08 386.67 81 386.844 80.84C387.03 80.68 387.124 80.4467 387.124 80.14C387.124 79.8867 387.03 79.68 386.844 79.52C386.657 79.36 386.33 79.28 385.864 79.28H384.684V81.08Z" fill="black"/>
<path d="M394.423 77.32H398.323C398.216 76.8933 398.023 76.5467 397.743 76.28C397.383 75.9467 396.929 75.78 396.383 75.78C395.796 75.78 395.309 75.9733 394.923 76.36C394.656 76.64 394.489 76.96 394.423 77.32ZM400.983 78.74V79.04H394.323C394.323 79.6533 394.503 80.16 394.863 80.56C395.209 80.9333 395.703 81.12 396.343 81.12C396.823 81.12 397.209 81.0333 397.503 80.86C397.729 80.74 397.936 80.4933 398.123 80.12L400.843 80.4C400.536 81.3733 399.963 82.12 399.123 82.64C398.389 83.08 397.449 83.3 396.303 83.3C394.783 83.3 393.596 82.8733 392.743 82.02C391.849 81.1267 391.403 79.98 391.403 78.58C391.403 77.1667 391.856 75.9933 392.763 75.06C393.616 74.2067 394.756 73.78 396.183 73.78C397.689 73.78 398.869 74.2267 399.723 75.12C400.563 76.0133 400.983 77.22 400.983 78.74Z" fill="black"/>
<path d="M405.66 81.98V87.58H402.78V74.08H405.66V75.14C406.354 74.2333 407.28 73.78 408.44 73.78C409.707 73.78 410.76 74.2 411.6 75.04C412.494 75.9333 412.94 77.0933 412.94 78.52C412.94 79.96 412.467 81.1533 411.52 82.1C410.72 82.9 409.714 83.3 408.5 83.3C407.234 83.3 406.287 82.86 405.66 81.98ZM407.74 76.26C407.114 76.26 406.58 76.48 406.14 76.92C405.687 77.3733 405.46 77.92 405.46 78.56C405.46 79.16 405.674 79.6867 406.1 80.14C406.554 80.5933 407.1 80.82 407.74 80.82C408.327 80.82 408.84 80.6133 409.28 80.2C409.747 79.76 409.98 79.1933 409.98 78.5C409.98 77.8467 409.754 77.3067 409.3 76.88C408.86 76.4667 408.34 76.26 407.74 76.26Z" fill="black"/>
<path d="M414.733 74.08H417.613V79.18L421.413 74.08H424.093V83H421.213V77.82L417.413 83H414.733V74.08Z" fill="black"/>
<path d="M425.695 83L427.255 74.08H429.535L431.855 79.04L434.175 74.08H436.455L438.015 83H435.255L434.535 78.26L432.335 83H431.375L429.175 78.26L428.455 83H425.695Z" fill="black"/>
<path d="M438.976 85.56L441.176 79.92L443.796 80.06L440.776 85.64L438.976 85.56Z" fill="black"/>
<path d="M113.928 109V106C113.342 106.147 112.742 106.22 112.128 106.22C110.768 106.22 109.788 105.933 109.188 105.36C108.642 104.84 108.368 104.073 108.368 103.06V100.08H111.208V102.66C111.208 103.1 111.328 103.427 111.568 103.64C111.795 103.84 112.182 103.94 112.728 103.94C113.182 103.94 113.582 103.88 113.928 103.76V100.08H116.808V109H113.928Z" fill="black"/>
<path d="M125.76 102.4H123.36V109H120.48V102.4H118.08V100.08H125.76V102.4Z" fill="black"/>
<path d="M135.748 101.22C136.641 102.113 137.088 103.22 137.088 104.54C137.088 105.86 136.641 106.967 135.748 107.86C134.788 108.82 133.488 109.3 131.848 109.3C130.208 109.3 128.908 108.82 127.948 107.86C127.054 106.967 126.608 105.86 126.608 104.54C126.608 103.22 127.054 102.113 127.948 101.22C128.908 100.26 130.208 99.78 131.848 99.78C133.488 99.78 134.788 100.26 135.748 101.22ZM133.468 102.86C133.041 102.433 132.501 102.22 131.848 102.22C131.194 102.22 130.654 102.433 130.228 102.86C129.788 103.3 129.568 103.86 129.568 104.54C129.568 105.22 129.788 105.78 130.228 106.22C130.654 106.647 131.201 106.86 131.868 106.86C132.508 106.86 133.041 106.647 133.468 106.22C133.908 105.78 134.128 105.22 134.128 104.54C134.128 103.86 133.908 103.3 133.468 102.86Z" fill="black"/>
<path d="M143.552 100.08H148.332C149.358 100.08 150.098 100.273 150.552 100.66C151.032 101.073 151.272 101.653 151.272 102.4C151.272 103 151.092 103.48 150.732 103.84C150.545 104.053 150.298 104.213 149.992 104.32C150.512 104.427 150.945 104.64 151.292 104.96C151.678 105.347 151.872 105.853 151.872 106.48C151.872 107.187 151.652 107.76 151.212 108.2C150.678 108.733 149.938 109 148.992 109H143.552V100.08ZM146.432 103.64H147.612C147.918 103.64 148.158 103.58 148.332 103.46C148.532 103.313 148.632 103.093 148.632 102.8C148.632 102.533 148.545 102.327 148.372 102.18C148.212 102.06 147.945 102 147.572 102H146.432V103.64ZM146.432 107.08H147.732C148.132 107.08 148.418 107 148.592 106.84C148.778 106.68 148.872 106.447 148.872 106.14C148.872 105.887 148.778 105.68 148.592 105.52C148.405 105.36 148.078 105.28 147.612 105.28H146.432V107.08Z" fill="black"/>
<path d="M162.571 100.08H165.411V109H162.571V100.08ZM156.471 103.14H158.451C159.504 103.14 160.311 103.42 160.871 103.98C161.364 104.473 161.611 105.153 161.611 106.02C161.611 106.967 161.344 107.7 160.811 108.22C160.277 108.74 159.457 109 158.351 109H153.591V100.08H156.471V103.14ZM156.471 106.96H157.651C158.064 106.96 158.357 106.88 158.531 106.72C158.717 106.56 158.811 106.333 158.811 106.04C158.811 105.76 158.717 105.547 158.531 105.4C158.344 105.253 158.057 105.18 157.671 105.18H156.471V106.96Z" fill="black"/>
<path d="M173.121 102.76L172.021 100.84C172.501 100.533 172.995 100.287 173.501 100.1C174.101 99.8867 174.801 99.78 175.601 99.78C176.988 99.78 177.995 100.087 178.621 100.7C179.061 101.127 179.281 101.673 179.281 102.34C179.281 102.98 179.101 103.487 178.741 103.86C178.501 104.1 178.248 104.267 177.981 104.36C178.475 104.48 178.875 104.693 179.181 105C179.581 105.387 179.781 105.88 179.781 106.48C179.781 107.2 179.521 107.82 179.001 108.34C178.348 108.98 177.255 109.3 175.721 109.3C174.801 109.3 173.988 109.167 173.281 108.9C172.695 108.673 172.161 108.36 171.681 107.96L172.901 106.06C173.261 106.367 173.628 106.607 174.001 106.78C174.441 106.967 174.901 107.06 175.381 107.06C175.821 107.06 176.168 106.987 176.421 106.84C176.688 106.68 176.821 106.453 176.821 106.16C176.821 105.893 176.681 105.693 176.401 105.56C176.148 105.453 175.801 105.4 175.361 105.4H174.281V103.44H175.101C175.568 103.44 175.928 103.387 176.181 103.28C176.461 103.147 176.601 102.947 176.601 102.68C176.601 102.427 176.455 102.233 176.161 102.1C175.908 101.993 175.608 101.94 175.261 101.94C174.848 101.94 174.455 102.02 174.081 102.18C173.708 102.34 173.388 102.533 173.121 102.76Z" fill="black"/>
<path d="M181.579 109V100.08H184.459V103.18H187.679V100.08H190.559V109H187.679V105.5H184.459V109H181.579Z" fill="black"/>
<path d="M199.63 101.08V100.08H202.51V109H199.63V107.92C199.03 108.84 198.15 109.3 196.99 109.3C195.617 109.3 194.503 108.847 193.65 107.94C192.783 107.02 192.35 105.907 192.35 104.6C192.35 103.12 192.81 101.92 193.73 101C194.543 100.187 195.577 99.78 196.83 99.78C198.057 99.78 198.99 100.213 199.63 101.08ZM197.55 102.26C196.923 102.26 196.397 102.473 195.97 102.9C195.53 103.34 195.31 103.88 195.31 104.52C195.31 105.16 195.51 105.693 195.91 106.12C196.35 106.587 196.917 106.82 197.61 106.82C198.197 106.82 198.697 106.613 199.11 106.2C199.577 105.76 199.81 105.2 199.81 104.52C199.81 103.84 199.59 103.293 199.15 102.88C198.723 102.467 198.19 102.26 197.55 102.26Z" fill="black"/>
<path d="M207.323 103.32H211.223C211.116 102.893 210.923 102.547 210.643 102.28C210.283 101.947 209.83 101.78 209.283 101.78C208.696 101.78 208.21 101.973 207.823 102.36C207.556 102.64 207.39 102.96 207.323 103.32ZM213.883 104.74V105.04H207.223C207.223 105.653 207.403 106.16 207.763 106.56C208.11 106.933 208.603 107.12 209.243 107.12C209.723 107.12 210.11 107.033 210.403 106.86C210.63 106.74 210.836 106.493 211.023 106.12L213.743 106.4C213.436 107.373 212.863 108.12 212.023 108.64C211.29 109.08 210.35 109.3 209.203 109.3C207.683 109.3 206.496 108.873 205.643 108.02C204.75 107.127 204.303 105.98 204.303 104.58C204.303 103.167 204.756 101.993 205.663 101.06C206.516 100.207 207.656 99.78 209.083 99.78C210.59 99.78 211.77 100.227 212.623 101.12C213.463 102.013 213.883 103.22 213.883 104.74Z" fill="black"/>
<path d="M222.401 102.4H220.001V109H217.121V102.4H214.721V100.08H222.401V102.4Z" fill="black"/>
<path d="M226.268 103.32H230.168C230.062 102.893 229.868 102.547 229.588 102.28C229.228 101.947 228.775 101.78 228.228 101.78C227.642 101.78 227.155 101.973 226.768 102.36C226.502 102.64 226.335 102.96 226.268 103.32ZM232.828 104.74V105.04H226.168C226.168 105.653 226.348 106.16 226.708 106.56C227.055 106.933 227.548 107.12 228.188 107.12C228.668 107.12 229.055 107.033 229.348 106.86C229.575 106.74 229.782 106.493 229.968 106.12L232.688 106.4C232.382 107.373 231.808 108.12 230.968 108.64C230.235 109.08 229.295 109.3 228.148 109.3C226.628 109.3 225.442 108.873 224.588 108.02C223.695 107.127 223.248 105.98 223.248 104.58C223.248 103.167 223.702 101.993 224.608 101.06C225.462 100.207 226.602 99.78 228.028 99.78C229.535 99.78 230.715 100.227 231.568 101.12C232.408 102.013 232.828 103.22 232.828 104.74Z" fill="black"/>
<path d="M247.994 101.22C248.887 102.113 249.334 103.22 249.334 104.54C249.334 105.86 248.887 106.967 247.994 107.86C247.034 108.82 245.734 109.3 244.094 109.3C242.454 109.3 241.154 108.82 240.194 107.86C239.301 106.967 238.854 105.86 238.854 104.54C238.854 103.22 239.301 102.113 240.194 101.22C241.154 100.26 242.454 99.78 244.094 99.78C245.734 99.78 247.034 100.26 247.994 101.22ZM245.714 102.86C245.287 102.433 244.747 102.22 244.094 102.22C243.441 102.22 242.901 102.433 242.474 102.86C242.034 103.3 241.814 103.86 241.814 104.54C241.814 105.22 242.034 105.78 242.474 106.22C242.901 106.647 243.447 106.86 244.114 106.86C244.754 106.86 245.287 106.647 245.714 106.22C246.154 105.78 246.374 105.22 246.374 104.54C246.374 103.86 246.154 103.3 245.714 102.86Z" fill="black"/>
<path d="M265.778 105.04V108.58C264.831 109.06 263.851 109.3 262.838 109.3C260.664 109.3 258.918 108.653 257.598 107.36C256.211 106.013 255.518 104.327 255.518 102.3C255.518 100.3 256.211 98.6267 257.598 97.28C258.918 96 260.578 95.36 262.578 95.36C263.564 95.36 264.631 95.6067 265.778 96.1V99.66C264.884 98.7133 263.844 98.24 262.658 98.24C261.564 98.24 260.658 98.5867 259.938 99.28C259.098 100.093 258.678 101.12 258.678 102.36C258.678 103.573 259.064 104.553 259.838 105.3C260.584 106.047 261.544 106.42 262.718 106.42C263.824 106.42 264.844 105.96 265.778 105.04Z" fill="black"/>
<path d="M270.487 103.32H274.387C274.28 102.893 274.087 102.547 273.807 102.28C273.447 101.947 272.994 101.78 272.447 101.78C271.86 101.78 271.374 101.973 270.987 102.36C270.72 102.64 270.554 102.96 270.487 103.32ZM277.047 104.74V105.04H270.387C270.387 105.653 270.567 106.16 270.927 106.56C271.274 106.933 271.767 107.12 272.407 107.12C272.887 107.12 273.274 107.033 273.567 106.86C273.794 106.74 274 106.493 274.187 106.12L276.907 106.4C276.6 107.373 276.027 108.12 275.187 108.64C274.454 109.08 273.514 109.3 272.367 109.3C270.847 109.3 269.66 108.873 268.807 108.02C267.914 107.127 267.467 105.98 267.467 104.58C267.467 103.167 267.92 101.993 268.827 101.06C269.68 100.207 270.82 99.78 272.247 99.78C273.754 99.78 274.934 100.227 275.787 101.12C276.627 102.013 277.047 103.22 277.047 104.74Z" fill="black"/>
<path d="M278.845 100.08H283.625C284.651 100.08 285.391 100.273 285.845 100.66C286.325 101.073 286.565 101.653 286.565 102.4C286.565 103 286.385 103.48 286.025 103.84C285.838 104.053 285.591 104.213 285.285 104.32C285.805 104.427 286.238 104.64 286.585 104.96C286.971 105.347 287.165 105.853 287.165 106.48C287.165 107.187 286.945 107.76 286.505 108.2C285.971 108.733 285.231 109 284.285 109H278.845V100.08ZM281.725 103.64H282.905C283.211 103.64 283.451 103.58 283.625 103.46C283.825 103.313 283.925 103.093 283.925 102.8C283.925 102.533 283.838 102.327 283.665 102.18C283.505 102.06 283.238 102 282.865 102H281.725V103.64ZM281.725 107.08H283.025C283.425 107.08 283.711 107 283.885 106.84C284.071 106.68 284.165 106.447 284.165 106.14C284.165 105.887 284.071 105.68 283.885 105.52C283.698 105.36 283.371 105.28 282.905 105.28H281.725V107.08Z" fill="black"/>
<path d="M291.464 103.32H295.364C295.257 102.893 295.064 102.547 294.784 102.28C294.424 101.947 293.97 101.78 293.424 101.78C292.837 101.78 292.35 101.973 291.964 102.36C291.697 102.64 291.53 102.96 291.464 103.32ZM298.024 104.74V105.04H291.364C291.364 105.653 291.544 106.16 291.904 106.56C292.25 106.933 292.744 107.12 293.384 107.12C293.864 107.12 294.25 107.033 294.544 106.86C294.77 106.74 294.977 106.493 295.164 106.12L297.884 106.4C297.577 107.373 297.004 108.12 296.164 108.64C295.43 109.08 294.49 109.3 293.344 109.3C291.824 109.3 290.637 108.873 289.784 108.02C288.89 107.127 288.444 105.98 288.444 104.58C288.444 103.167 288.897 101.993 289.804 101.06C290.657 100.207 291.797 99.78 293.224 99.78C294.73 99.78 295.91 100.227 296.764 101.12C297.604 102.013 298.024 103.22 298.024 104.74Z" fill="black"/>
<path d="M302.701 107.98V113.58H299.821V100.08H302.701V101.14C303.395 100.233 304.321 99.78 305.481 99.78C306.748 99.78 307.801 100.2 308.641 101.04C309.535 101.933 309.981 103.093 309.981 104.52C309.981 105.96 309.508 107.153 308.561 108.1C307.761 108.9 306.755 109.3 305.541 109.3C304.275 109.3 303.328 108.86 302.701 107.98ZM304.781 102.26C304.155 102.26 303.621 102.48 303.181 102.92C302.728 103.373 302.501 103.92 302.501 104.56C302.501 105.16 302.715 105.687 303.141 106.14C303.595 106.593 304.141 106.82 304.781 106.82C305.368 106.82 305.881 106.613 306.321 106.2C306.788 105.76 307.021 105.193 307.021 104.5C307.021 103.847 306.795 103.307 306.341 102.88C305.901 102.467 305.381 102.26 304.781 102.26Z" fill="black"/>
<path d="M311.774 109V100.08H314.654V103.18H317.874V100.08H320.754V109H317.874V105.5H314.654V109H311.774Z" fill="black"/>
<path d="M331.685 101.22C332.579 102.113 333.025 103.22 333.025 104.54C333.025 105.86 332.579 106.967 331.685 107.86C330.725 108.82 329.425 109.3 327.785 109.3C326.145 109.3 324.845 108.82 323.885 107.86C322.992 106.967 322.545 105.86 322.545 104.54C322.545 103.22 322.992 102.113 323.885 101.22C324.845 100.26 326.145 99.78 327.785 99.78C329.425 99.78 330.725 100.26 331.685 101.22ZM329.405 102.86C328.979 102.433 328.439 102.22 327.785 102.22C327.132 102.22 326.592 102.433 326.165 102.86C325.725 103.3 325.505 103.86 325.505 104.54C325.505 105.22 325.725 105.78 326.165 106.22C326.592 106.647 327.139 106.86 327.805 106.86C328.445 106.86 328.979 106.647 329.405 106.22C329.845 105.78 330.065 105.22 330.065 104.54C330.065 103.86 329.845 103.3 329.405 102.86Z" fill="black"/>
<path d="M334.821 100.08H337.701V105.18L341.501 100.08H344.181V109H341.301V103.82L337.501 109H334.821V100.08ZM341.121 95.7L343.121 96.48C342.868 97.2267 342.441 97.7933 341.841 98.18C341.268 98.5533 340.488 98.74 339.501 98.74C338.515 98.74 337.735 98.5533 337.161 98.18C336.561 97.7933 336.135 97.2267 335.881 96.48L337.881 95.7C337.961 96.0867 338.135 96.3933 338.401 96.62C338.681 96.86 339.048 96.98 339.501 96.98C339.955 96.98 340.321 96.86 340.601 96.62C340.868 96.3933 341.041 96.0867 341.121 95.7Z" fill="black"/>
<path d="M358.091 95.36C360.197 95.36 361.917 96.0067 363.251 97.3C364.637 98.6467 365.331 100.327 365.331 102.34C365.331 104.327 364.637 105.993 363.251 107.34C361.904 108.647 360.184 109.3 358.091 109.3C355.984 109.3 354.251 108.647 352.891 107.34C352.237 106.727 351.724 105.993 351.351 105.14C350.991 104.273 350.811 103.353 350.811 102.38C350.811 101.447 350.997 100.527 351.371 99.62C351.757 98.7 352.257 97.9333 352.871 97.32C354.177 96.0133 355.917 95.36 358.091 95.36ZM358.071 98.2C356.884 98.2 355.911 98.58 355.151 99.34C354.364 100.1 353.971 101.107 353.971 102.36C353.971 103.56 354.377 104.56 355.191 105.36C355.964 106.093 356.917 106.46 358.051 106.46C359.264 106.46 360.251 106.08 361.011 105.32C361.784 104.573 362.171 103.58 362.171 102.34C362.171 101.113 361.784 100.113 361.011 99.34C360.224 98.58 359.244 98.2 358.071 98.2Z" fill="black"/>
<path d="M373.982 100.28V102.9C373.435 102.447 372.809 102.22 372.102 102.22C371.435 102.22 370.889 102.433 370.462 102.86C370.022 103.3 369.802 103.86 369.802 104.54C369.802 105.18 370.002 105.713 370.402 106.14C370.842 106.62 371.422 106.86 372.142 106.86C372.822 106.86 373.435 106.627 373.982 106.16V108.76C373.329 109.12 372.569 109.3 371.702 109.3C370.315 109.3 369.162 108.853 368.242 107.96C367.309 107.053 366.842 105.92 366.842 104.56C366.842 103.147 367.335 101.973 368.322 101.04C369.215 100.2 370.349 99.78 371.722 99.78C372.522 99.78 373.275 99.9467 373.982 100.28Z" fill="black"/>
<path d="M378.475 103.32H382.375C382.269 102.893 382.075 102.547 381.795 102.28C381.435 101.947 380.982 101.78 380.435 101.78C379.849 101.78 379.362 101.973 378.975 102.36C378.709 102.64 378.542 102.96 378.475 103.32ZM385.035 104.74V105.04H378.375C378.375 105.653 378.555 106.16 378.915 106.56C379.262 106.933 379.755 107.12 380.395 107.12C380.875 107.12 381.262 107.033 381.555 106.86C381.782 106.74 381.989 106.493 382.175 106.12L384.895 106.4C384.589 107.373 384.015 108.12 383.175 108.64C382.442 109.08 381.502 109.3 380.355 109.3C378.835 109.3 377.649 108.873 376.795 108.02C375.902 107.127 375.455 105.98 375.455 104.58C375.455 103.167 375.909 101.993 376.815 101.06C377.669 100.207 378.809 99.78 380.235 99.78C381.742 99.78 382.922 100.227 383.775 101.12C384.615 102.013 385.035 103.22 385.035 104.74Z" fill="black"/>
<path d="M393.553 102.4H391.153V109H388.273V102.4H385.873V100.08H393.553V102.4Z" fill="black"/>
<path d="M394.841 100.08H397.721V105.18L401.521 100.08H404.201V109H401.321V103.82L397.521 109H394.841V100.08Z" fill="black"/>
<path d="M406.442 100.08H409.322V105.18L413.122 100.08H415.802V109H412.922V103.82L409.122 109H406.442V100.08Z" fill="black"/>
<path d="M423.304 104.72H420.384V101.04C420.811 101.147 421.271 101.167 421.764 101.1C422.257 101.033 422.651 100.873 422.944 100.62C423.344 100.26 423.544 99.8 423.544 99.24C423.544 98.84 423.417 98.5 423.164 98.22C422.924 97.9667 422.604 97.84 422.204 97.84C421.777 97.84 421.437 97.9667 421.184 98.22C420.931 98.4867 420.817 98.86 420.844 99.34H417.764C417.777 98.2467 418.144 97.3267 418.864 96.58C419.651 95.7667 420.751 95.36 422.164 95.36C423.537 95.36 424.637 95.76 425.464 96.56C426.211 97.2933 426.584 98.2133 426.584 99.32C426.584 100.293 426.251 101.14 425.584 101.86C424.984 102.513 424.224 102.907 423.304 103.04V104.72ZM420.624 108.78C420.277 108.42 420.104 107.987 420.104 107.48C420.104 106.973 420.277 106.547 420.624 106.2C420.984 105.84 421.417 105.66 421.924 105.66C422.431 105.66 422.857 105.84 423.204 106.2C423.564 106.547 423.744 106.973 423.744 107.48C423.744 107.987 423.564 108.42 423.204 108.78C422.857 109.127 422.431 109.3 421.924 109.3C421.417 109.3 420.984 109.127 420.624 108.78Z" fill="black"/>
<path d="M68.7841 121.36C70.8908 121.36 72.6108 122.007 73.9441 123.3C75.3308 124.647 76.0241 126.327 76.0241 128.34C76.0241 130.327 75.3308 131.993 73.9441 133.34C72.5974 134.647 70.8774 135.3 68.7841 135.3C66.6774 135.3 64.9441 134.647 63.5841 133.34C62.9308 132.727 62.4174 131.993 62.0441 131.14C61.6841 130.273 61.5041 129.353 61.5041 128.38C61.5041 127.447 61.6908 126.527 62.0641 125.62C62.4508 124.7 62.9508 123.933 63.5641 123.32C64.8708 122.013 66.6108 121.36 68.7841 121.36ZM68.7641 124.2C67.5774 124.2 66.6041 124.58 65.8441 125.34C65.0574 126.1 64.6641 127.107 64.6641 128.36C64.6641 129.56 65.0708 130.56 65.8841 131.36C66.6574 132.093 67.6108 132.46 68.7441 132.46C69.9574 132.46 70.9441 132.08 71.7041 131.32C72.4774 130.573 72.8641 129.58 72.8641 128.34C72.8641 127.113 72.4774 126.113 71.7041 125.34C70.9174 124.58 69.9374 124.2 68.7641 124.2Z" fill="black"/>
<path d="M84.6955 128.4H82.2955V135H79.4155V128.4H77.0155V126.08H84.6955V128.4Z" fill="black"/>
<path d="M85.9833 126.08H90.7633C91.79 126.08 92.53 126.273 92.9833 126.66C93.4633 127.073 93.7033 127.653 93.7033 128.4C93.7033 129 93.5233 129.48 93.1633 129.84C92.9766 130.053 92.73 130.213 92.4233 130.32C92.9433 130.427 93.3766 130.64 93.7233 130.96C94.11 131.347 94.3033 131.853 94.3033 132.48C94.3033 133.187 94.0833 133.76 93.6433 134.2C93.11 134.733 92.37 135 91.4233 135H85.9833V126.08ZM88.8633 129.64H90.0433C90.35 129.64 90.59 129.58 90.7633 129.46C90.9633 129.313 91.0633 129.093 91.0633 128.8C91.0633 128.533 90.9766 128.327 90.8033 128.18C90.6433 128.06 90.3766 128 90.0033 128H88.8633V129.64ZM88.8633 133.08H90.1633C90.5633 133.08 90.85 133 91.0233 132.84C91.21 132.68 91.3033 132.447 91.3033 132.14C91.3033 131.887 91.21 131.68 91.0233 131.52C90.8366 131.36 90.51 131.28 90.0433 131.28H88.8633V133.08Z" fill="black"/>
<path d="M98.6024 129.32H102.502C102.396 128.893 102.202 128.547 101.922 128.28C101.562 127.947 101.109 127.78 100.562 127.78C99.9757 127.78 99.489 127.973 99.1024 128.36C98.8357 128.64 98.669 128.96 98.6024 129.32ZM105.162 130.74V131.04H98.5024C98.5024 131.653 98.6824 132.16 99.0424 132.56C99.389 132.933 99.8824 133.12 100.522 133.12C101.002 133.12 101.389 133.033 101.682 132.86C101.909 132.74 102.116 132.493 102.302 132.12L105.022 132.4C104.716 133.373 104.142 134.12 103.302 134.64C102.569 135.08 101.629 135.3 100.482 135.3C98.9624 135.3 97.7757 134.873 96.9224 134.02C96.029 133.127 95.5824 131.98 95.5824 130.58C95.5824 129.167 96.0357 127.993 96.9424 127.06C97.7957 126.207 98.9357 125.78 100.362 125.78C101.869 125.78 103.049 126.227 103.902 127.12C104.742 128.013 105.162 129.22 105.162 130.74Z" fill="black"/>
<path d="M113.68 128.4H111.28V135H108.4V128.4H106V126.08H113.68V128.4Z" fill="black"/>
<path d="M117.848 129.14H119.968C121.021 129.14 121.828 129.42 122.388 129.98C122.868 130.46 123.108 131.133 123.108 132C123.108 132.96 122.841 133.7 122.308 134.22C121.774 134.74 120.954 135 119.848 135H114.968V126.08H117.848V129.14ZM117.848 132.96H119.028C119.441 132.96 119.734 132.88 119.908 132.72C120.094 132.56 120.188 132.333 120.188 132.04C120.188 131.76 120.094 131.547 119.908 131.4C119.721 131.253 119.434 131.18 119.048 131.18H117.848V132.96Z" fill="black"/>
<path d="M131.004 128.4H128.604V135H125.724V128.4H123.324V126.08H131.004V128.4Z" fill="black"/>
<path d="M134.872 129.32H138.772C138.665 128.893 138.472 128.547 138.192 128.28C137.832 127.947 137.379 127.78 136.832 127.78C136.245 127.78 135.759 127.973 135.372 128.36C135.105 128.64 134.939 128.96 134.872 129.32ZM141.432 130.74V131.04H134.772C134.772 131.653 134.952 132.16 135.312 132.56C135.659 132.933 136.152 133.12 136.792 133.12C137.272 133.12 137.659 133.033 137.952 132.86C138.179 132.74 138.385 132.493 138.572 132.12L141.292 132.4C140.985 133.373 140.412 134.12 139.572 134.64C138.839 135.08 137.899 135.3 136.752 135.3C135.232 135.3 134.045 134.873 133.192 134.02C132.299 133.127 131.852 131.98 131.852 130.58C131.852 129.167 132.305 127.993 133.212 127.06C134.065 126.207 135.205 125.78 136.632 125.78C138.139 125.78 139.319 126.227 140.172 127.12C141.012 128.013 141.432 129.22 141.432 130.74Z" fill="black"/>
<path d="M147.897 135V126.08H156.757V135H153.877V128.4H150.777V135H147.897Z" fill="black"/>
<path d="M161.871 133.98V139.58H158.991V126.08H161.871V127.14C162.564 126.233 163.491 125.78 164.651 125.78C165.918 125.78 166.971 126.2 167.811 127.04C168.704 127.933 169.151 129.093 169.151 130.52C169.151 131.96 168.678 133.153 167.731 134.1C166.931 134.9 165.924 135.3 164.711 135.3C163.444 135.3 162.498 134.86 161.871 133.98ZM163.951 128.26C163.324 128.26 162.791 128.48 162.351 128.92C161.898 129.373 161.671 129.92 161.671 130.56C161.671 131.16 161.884 131.687 162.311 132.14C162.764 132.593 163.311 132.82 163.951 132.82C164.538 132.82 165.051 132.613 165.491 132.2C165.958 131.76 166.191 131.193 166.191 130.5C166.191 129.847 165.964 129.307 165.511 128.88C165.071 128.467 164.551 128.26 163.951 128.26Z" fill="black"/>
<path d="M177.784 127.08V126.08H180.664V135H177.784V133.92C177.184 134.84 176.304 135.3 175.144 135.3C173.771 135.3 172.658 134.847 171.804 133.94C170.938 133.02 170.504 131.907 170.504 130.6C170.504 129.12 170.964 127.92 171.884 127C172.698 126.187 173.731 125.78 174.984 125.78C176.211 125.78 177.144 126.213 177.784 127.08ZM175.704 128.26C175.078 128.26 174.551 128.473 174.124 128.9C173.684 129.34 173.464 129.88 173.464 130.52C173.464 131.16 173.664 131.693 174.064 132.12C174.504 132.587 175.071 132.82 175.764 132.82C176.351 132.82 176.851 132.613 177.264 132.2C177.731 131.76 177.964 131.2 177.964 130.52C177.964 129.84 177.744 129.293 177.304 128.88C176.878 128.467 176.344 128.26 175.704 128.26Z" fill="black"/>
<path d="M182.897 126.08H187.677C188.704 126.08 189.444 126.273 189.897 126.66C190.377 127.073 190.617 127.653 190.617 128.4C190.617 129 190.437 129.48 190.077 129.84C189.891 130.053 189.644 130.213 189.337 130.32C189.857 130.427 190.291 130.64 190.637 130.96C191.024 131.347 191.217 131.853 191.217 132.48C191.217 133.187 190.997 133.76 190.557 134.2C190.024 134.733 189.284 135 188.337 135H182.897V126.08ZM185.777 129.64H186.957C187.264 129.64 187.504 129.58 187.677 129.46C187.877 129.313 187.977 129.093 187.977 128.8C187.977 128.533 187.891 128.327 187.717 128.18C187.557 128.06 187.291 128 186.917 128H185.777V129.64ZM185.777 133.08H187.077C187.477 133.08 187.764 133 187.937 132.84C188.124 132.68 188.217 132.447 188.217 132.14C188.217 131.887 188.124 131.68 187.937 131.52C187.751 131.36 187.424 131.28 186.957 131.28H185.777V133.08Z" fill="black"/>
<path d="M192.936 126.08H195.816V131.18L199.616 126.08H202.296V135H199.416V129.82L195.616 135H192.936V126.08Z" fill="black"/>
<path d="M213.258 126.08V135H210.378V128.4H208.038V131.14C208.038 132.5 207.745 133.513 207.158 134.18C206.585 134.807 205.765 135.12 204.698 135.12C204.311 135.12 203.938 135.073 203.578 134.98V132.7C204.191 132.873 204.651 132.787 204.958 132.44C205.198 132.12 205.318 131.647 205.318 131.02V126.08H213.258Z" fill="black"/>
<path d="M218.375 129.14H220.495C221.548 129.14 222.355 129.42 222.915 129.98C223.395 130.46 223.635 131.133 223.635 132C223.635 132.96 223.368 133.7 222.835 134.22C222.302 134.74 221.482 135 220.375 135H215.495V126.08H218.375V129.14ZM218.375 132.96H219.555C219.968 132.96 220.262 132.88 220.435 132.72C220.622 132.56 220.715 132.333 220.715 132.04C220.715 131.76 220.622 131.547 220.435 131.4C220.248 131.253 219.962 131.18 219.575 131.18H218.375V132.96Z" fill="black"/>
<path d="M225.241 135V126.08H228.121V129.18H231.341V126.08H234.221V135H231.341V131.5H228.121V135H225.241Z" fill="black"/>
<path d="M245.152 127.22C246.045 128.113 246.492 129.22 246.492 130.54C246.492 131.86 246.045 132.967 245.152 133.86C244.192 134.82 242.892 135.3 241.252 135.3C239.612 135.3 238.312 134.82 237.352 133.86C236.459 132.967 236.012 131.86 236.012 130.54C236.012 129.22 236.459 128.113 237.352 127.22C238.312 126.26 239.612 125.78 241.252 125.78C242.892 125.78 244.192 126.26 245.152 127.22ZM242.872 128.86C242.445 128.433 241.905 128.22 241.252 128.22C240.599 128.22 240.059 128.433 239.632 128.86C239.192 129.3 238.972 129.86 238.972 130.54C238.972 131.22 239.192 131.78 239.632 132.22C240.059 132.647 240.605 132.86 241.272 132.86C241.912 132.86 242.445 132.647 242.872 132.22C243.312 131.78 243.532 131.22 243.532 130.54C243.532 129.86 243.312 129.3 242.872 128.86Z" fill="black"/>
<path d="M252.316 135L253.876 126.08H256.156L258.476 131.04L260.796 126.08H263.076L264.636 135H261.876L261.156 130.26L258.956 135H257.996L255.796 130.26L255.076 135H252.316Z" fill="black"/>
<path d="M266.237 126.08H269.117V131.18L272.917 126.08H275.597V135H272.717V129.82L268.917 135H266.237V126.08Z" fill="black"/>
<path d="M277.839 135V126.08H280.719V129.18H283.939V126.08H286.819V135H283.939V131.5H280.719V135H277.839Z" fill="black"/>
<path d="M289.05 126.08H291.93V131.18L295.73 126.08H298.41V135H295.53V129.82L291.73 135H289.05V126.08Z" fill="black"/>
<path d="M300.011 135L301.571 126.08H303.851L306.171 131.04L308.491 126.08H310.771L312.331 135H309.571L308.851 130.26L306.651 135H305.691L303.491 130.26L302.771 135H300.011Z" fill="black"/>
<path d="M313.973 139.58L317.113 133.86L312.853 126.08H316.173L318.693 130.92L321.153 126.08H324.393L317.213 139.58H313.973Z" fill="black"/>
<path d="M324.601 135L326.161 126.08H328.441L330.761 131.04L333.081 126.08H335.361L336.921 135H334.161L333.441 130.26L331.241 135H330.281L328.081 130.26L327.361 135H324.601Z" fill="black"/>
<path d="M343.718 135V126.08H346.598V129.18H349.818V126.08H352.698V135H349.818V131.5H346.598V135H343.718Z" fill="black"/>
<path d="M361.769 127.08V126.08H364.649V135H361.769V133.92C361.169 134.84 360.289 135.3 359.129 135.3C357.755 135.3 356.642 134.847 355.789 133.94C354.922 133.02 354.489 131.907 354.489 130.6C354.489 129.12 354.949 127.92 355.869 127C356.682 126.187 357.715 125.78 358.969 125.78C360.195 125.78 361.129 126.213 361.769 127.08ZM359.689 128.26C359.062 128.26 358.535 128.473 358.109 128.9C357.669 129.34 357.449 129.88 357.449 130.52C357.449 131.16 357.649 131.693 358.049 132.12C358.489 132.587 359.055 132.82 359.749 132.82C360.335 132.82 360.835 132.613 361.249 132.2C361.715 131.76 361.949 131.2 361.949 130.52C361.949 129.84 361.729 129.293 361.289 128.88C360.862 128.467 360.329 128.26 359.689 128.26Z" fill="black"/>
<path d="M371.43 134.6L377.47 124.26H371.59V121.66H382.19L374.29 135.3L371.43 134.6Z" fill="black"/>
<path d="M388.21 126.08H392.99C394.017 126.08 394.757 126.273 395.21 126.66C395.69 127.073 395.93 127.653 395.93 128.4C395.93 129 395.75 129.48 395.39 129.84C395.203 130.053 394.957 130.213 394.65 130.32C395.17 130.427 395.603 130.64 395.95 130.96C396.337 131.347 396.53 131.853 396.53 132.48C396.53 133.187 396.31 133.76 395.87 134.2C395.337 134.733 394.597 135 393.65 135H388.21V126.08ZM391.09 129.64H392.27C392.577 129.64 392.817 129.58 392.99 129.46C393.19 129.313 393.29 129.093 393.29 128.8C393.29 128.533 393.203 128.327 393.03 128.18C392.87 128.06 392.603 128 392.23 128H391.09V129.64ZM391.09 133.08H392.39C392.79 133.08 393.077 133 393.25 132.84C393.437 132.68 393.53 132.447 393.53 132.14C393.53 131.887 393.437 131.68 393.25 131.52C393.063 131.36 392.737 131.28 392.27 131.28H391.09V133.08Z" fill="black"/>
<path d="M406.949 127.22C407.842 128.113 408.289 129.22 408.289 130.54C408.289 131.86 407.842 132.967 406.949 133.86C405.989 134.82 404.689 135.3 403.049 135.3C401.409 135.3 400.109 134.82 399.149 133.86C398.256 132.967 397.809 131.86 397.809 130.54C397.809 129.22 398.256 128.113 399.149 127.22C400.109 126.26 401.409 125.78 403.049 125.78C404.689 125.78 405.989 126.26 406.949 127.22ZM404.669 128.86C404.242 128.433 403.702 128.22 403.049 128.22C402.396 128.22 401.856 128.433 401.429 128.86C400.989 129.3 400.769 129.86 400.769 130.54C400.769 131.22 400.989 131.78 401.429 132.22C401.856 132.647 402.402 132.86 403.069 132.86C403.709 132.86 404.242 132.647 404.669 132.22C405.109 131.78 405.329 131.22 405.329 130.54C405.329 129.86 405.109 129.3 404.669 128.86Z" fill="black"/>
<path d="M410.085 135V126.08H418.945V135H416.065V128.4H412.965V135H410.085Z" fill="black"/>
<path d="M424.059 133.98V139.58H421.179V126.08H424.059V127.14C424.752 126.233 425.679 125.78 426.839 125.78C428.105 125.78 429.159 126.2 429.999 127.04C430.892 127.933 431.339 129.093 431.339 130.52C431.339 131.96 430.865 133.153 429.919 134.1C429.119 134.9 428.112 135.3 426.899 135.3C425.632 135.3 424.685 134.86 424.059 133.98ZM426.139 128.26C425.512 128.26 424.979 128.48 424.539 128.92C424.085 129.373 423.859 129.92 423.859 130.56C423.859 131.16 424.072 131.687 424.499 132.14C424.952 132.593 425.499 132.82 426.139 132.82C426.725 132.82 427.239 132.613 427.679 132.2C428.145 131.76 428.379 131.193 428.379 130.5C428.379 129.847 428.152 129.307 427.699 128.88C427.259 128.467 426.739 128.26 426.139 128.26Z" fill="black"/>
<path d="M441.832 127.22C442.725 128.113 443.172 129.22 443.172 130.54C443.172 131.86 442.725 132.967 441.832 133.86C440.872 134.82 439.572 135.3 437.932 135.3C436.292 135.3 434.992 134.82 434.032 133.86C433.138 132.967 432.692 131.86 432.692 130.54C432.692 129.22 433.138 128.113 434.032 127.22C434.992 126.26 436.292 125.78 437.932 125.78C439.572 125.78 440.872 126.26 441.832 127.22ZM439.552 128.86C439.125 128.433 438.585 128.22 437.932 128.22C437.278 128.22 436.738 128.433 436.312 128.86C435.872 129.3 435.652 129.86 435.652 130.54C435.652 131.22 435.872 131.78 436.312 132.22C436.738 132.647 437.285 132.86 437.952 132.86C438.592 132.86 439.125 132.647 439.552 132.22C439.992 131.78 440.212 131.22 440.212 130.54C440.212 129.86 439.992 129.3 439.552 128.86Z" fill="black"/>
<path d="M451.668 126.28V128.9C451.121 128.447 450.494 128.22 449.788 128.22C449.121 128.22 448.574 128.433 448.148 128.86C447.708 129.3 447.488 129.86 447.488 130.54C447.488 131.18 447.688 131.713 448.088 132.14C448.528 132.62 449.108 132.86 449.828 132.86C450.508 132.86 451.121 132.627 451.668 132.16V134.76C451.014 135.12 450.254 135.3 449.388 135.3C448.001 135.3 446.848 134.853 445.928 133.96C444.994 133.053 444.528 131.92 444.528 130.56C444.528 129.147 445.021 127.973 446.008 127.04C446.901 126.2 448.034 125.78 449.408 125.78C450.208 125.78 450.961 125.947 451.668 126.28Z" fill="black"/>
<path d="M462.281 127.22C463.174 128.113 463.621 129.22 463.621 130.54C463.621 131.86 463.174 132.967 462.281 133.86C461.321 134.82 460.021 135.3 458.381 135.3C456.741 135.3 455.441 134.82 454.481 133.86C453.588 132.967 453.141 131.86 453.141 130.54C453.141 129.22 453.588 128.113 454.481 127.22C455.441 126.26 456.741 125.78 458.381 125.78C460.021 125.78 461.321 126.26 462.281 127.22ZM460.001 128.86C459.574 128.433 459.034 128.22 458.381 128.22C457.728 128.22 457.188 128.433 456.761 128.86C456.321 129.3 456.101 129.86 456.101 130.54C456.101 131.22 456.321 131.78 456.761 132.22C457.188 132.647 457.734 132.86 458.401 132.86C459.041 132.86 459.574 132.647 460.001 132.22C460.441 131.78 460.661 131.22 460.661 130.54C460.661 129.86 460.441 129.3 460.001 128.86Z" fill="black"/>
<path d="M465.417 126.08H470.197C471.224 126.08 471.964 126.273 472.417 126.66C472.897 127.073 473.137 127.653 473.137 128.4C473.137 129 472.957 129.48 472.597 129.84C472.41 130.053 472.164 130.213 471.857 130.32C472.377 130.427 472.81 130.64 473.157 130.96C473.544 131.347 473.737 131.853 473.737 132.48C473.737 133.187 473.517 133.76 473.077 134.2C472.544 134.733 471.804 135 470.857 135H465.417V126.08ZM468.297 129.64H469.477C469.784 129.64 470.024 129.58 470.197 129.46C470.397 129.313 470.497 129.093 470.497 128.8C470.497 128.533 470.41 128.327 470.237 128.18C470.077 128.06 469.81 128 469.437 128H468.297V129.64ZM468.297 133.08H469.597C469.997 133.08 470.284 133 470.457 132.84C470.644 132.68 470.737 132.447 470.737 132.14C470.737 131.887 470.644 131.68 470.457 131.52C470.27 131.36 469.944 131.28 469.477 131.28H468.297V133.08Z" fill="black"/>
<path d="M174.099 152.08H176.979V157.18L180.779 152.08H183.459V161H180.579V155.82L176.779 161H174.099V152.08Z" fill="black"/>
<path d="M190.368 161V152.08H199.228V161H196.348V154.4H193.248V161H190.368Z" fill="black"/>
<path d="M210.162 153.22C211.055 154.113 211.502 155.22 211.502 156.54C211.502 157.86 211.055 158.967 210.162 159.86C209.202 160.82 207.902 161.3 206.262 161.3C204.622 161.3 203.322 160.82 202.362 159.86C201.468 158.967 201.022 157.86 201.022 156.54C201.022 155.22 201.468 154.113 202.362 153.22C203.322 152.26 204.622 151.78 206.262 151.78C207.902 151.78 209.202 152.26 210.162 153.22ZM207.882 154.86C207.455 154.433 206.915 154.22 206.262 154.22C205.608 154.22 205.068 154.433 204.642 154.86C204.202 155.3 203.982 155.86 203.982 156.54C203.982 157.22 204.202 157.78 204.642 158.22C205.068 158.647 205.615 158.86 206.282 158.86C206.922 158.86 207.455 158.647 207.882 158.22C208.322 157.78 208.542 157.22 208.542 156.54C208.542 155.86 208.322 155.3 207.882 154.86Z" fill="black"/>
<path d="M222.018 152.08V161H219.138V154.4H216.798V157.14C216.798 158.5 216.504 159.513 215.918 160.18C215.344 160.807 214.524 161.12 213.458 161.12C213.071 161.12 212.698 161.073 212.338 160.98V158.7C212.951 158.873 213.411 158.787 213.718 158.44C213.958 158.12 214.078 157.647 214.078 157.02V152.08H222.018Z" fill="black"/>
<path d="M224.295 165.58L227.435 159.86L223.175 152.08H226.495L229.015 156.92L231.475 152.08H234.715L227.535 165.58H224.295Z" fill="black"/>
<path d="M241.194 161V158C240.607 158.147 240.007 158.22 239.394 158.22C238.034 158.22 237.054 157.933 236.454 157.36C235.907 156.84 235.634 156.073 235.634 155.06V152.08H238.474V154.66C238.474 155.1 238.594 155.427 238.834 155.64C239.061 155.84 239.447 155.94 239.994 155.94C240.447 155.94 240.847 155.88 241.194 155.76V152.08H244.074V161H241.194Z" fill="black"/>
<path d="M246.306 152.08H249.186V157.18L252.986 152.08H255.666V161H252.786V155.82L248.986 161H246.306V152.08Z" fill="black"/>
<path d="M264.627 154.4H262.227V161H259.347V154.4H256.947V152.08H264.627V154.4Z" fill="black"/>
<path d="M268.495 155.32H272.395C272.288 154.893 272.095 154.547 271.815 154.28C271.455 153.947 271.002 153.78 270.455 153.78C269.868 153.78 269.382 153.973 268.995 154.36C268.728 154.64 268.562 154.96 268.495 155.32ZM275.055 156.74V157.04H268.395C268.395 157.653 268.575 158.16 268.935 158.56C269.282 158.933 269.775 159.12 270.415 159.12C270.895 159.12 271.282 159.033 271.575 158.86C271.802 158.74 272.008 158.493 272.195 158.12L274.915 158.4C274.608 159.373 274.035 160.12 273.195 160.64C272.462 161.08 271.522 161.3 270.375 161.3C268.855 161.3 267.668 160.873 266.815 160.02C265.922 159.127 265.475 157.98 265.475 156.58C265.475 155.167 265.928 153.993 266.835 153.06C267.688 152.207 268.828 151.78 270.255 151.78C271.762 151.78 272.942 152.227 273.795 153.12C274.635 154.013 275.055 155.22 275.055 156.74Z" fill="black"/>
<path d="M288.22 152.28V154.9C287.674 154.447 287.047 154.22 286.34 154.22C285.674 154.22 285.127 154.433 284.7 154.86C284.26 155.3 284.04 155.86 284.04 156.54C284.04 157.18 284.24 157.713 284.64 158.14C285.08 158.62 285.66 158.86 286.38 158.86C287.06 158.86 287.674 158.627 288.22 158.16V160.76C287.567 161.12 286.807 161.3 285.94 161.3C284.554 161.3 283.4 160.853 282.48 159.96C281.547 159.053 281.08 157.92 281.08 156.56C281.08 155.147 281.574 153.973 282.56 153.04C283.454 152.2 284.587 151.78 285.96 151.78C286.76 151.78 287.514 151.947 288.22 152.28Z" fill="black"/>
<path d="M290.174 165.58L293.314 159.86L289.054 152.08H292.374L294.894 156.92L297.354 152.08H300.594L293.414 165.58H290.174Z" fill="black"/>
<path d="M301.833 152.08H306.613C307.64 152.08 308.38 152.273 308.833 152.66C309.313 153.073 309.553 153.653 309.553 154.4C309.553 155 309.373 155.48 309.013 155.84C308.826 156.053 308.58 156.213 308.273 156.32C308.793 156.427 309.226 156.64 309.573 156.96C309.96 157.347 310.153 157.853 310.153 158.48C310.153 159.187 309.933 159.76 309.493 160.2C308.96 160.733 308.22 161 307.273 161H301.833V152.08ZM304.713 155.64H305.893C306.2 155.64 306.44 155.58 306.613 155.46C306.813 155.313 306.913 155.093 306.913 154.8C306.913 154.533 306.826 154.327 306.653 154.18C306.493 154.06 306.226 154 305.853 154H304.713V155.64ZM304.713 159.08H306.013C306.413 159.08 306.7 159 306.873 158.84C307.06 158.68 307.153 158.447 307.153 158.14C307.153 157.887 307.06 157.68 306.873 157.52C306.686 157.36 306.36 157.28 305.893 157.28H304.713V159.08Z" fill="black"/>
<path d="M314.452 155.32H318.352C318.245 154.893 318.052 154.547 317.772 154.28C317.412 153.947 316.959 153.78 316.412 153.78C315.825 153.78 315.339 153.973 314.952 154.36C314.685 154.64 314.519 154.96 314.452 155.32ZM321.012 156.74V157.04H314.352C314.352 157.653 314.532 158.16 314.892 158.56C315.239 158.933 315.732 159.12 316.372 159.12C316.852 159.12 317.239 159.033 317.532 158.86C317.759 158.74 317.965 158.493 318.152 158.12L320.872 158.4C320.565 159.373 319.992 160.12 319.152 160.64C318.419 161.08 317.479 161.3 316.332 161.3C314.812 161.3 313.625 160.873 312.772 160.02C311.879 159.127 311.432 157.98 311.432 156.58C311.432 155.167 311.885 153.993 312.792 153.06C313.645 152.207 314.785 151.78 316.212 151.78C317.719 151.78 318.899 152.227 319.752 153.12C320.592 154.013 321.012 155.22 321.012 156.74Z" fill="black"/>
<path d="M322.809 161V152.08H325.689V155.18H328.909V152.08H331.789V161H328.909V157.5H325.689V161H322.809Z" fill="black"/>
<path d="M334.02 152.08H336.9V157.18L340.7 152.08H343.38V161H340.5V155.82L336.7 161H334.02V152.08Z" fill="black"/>
<path d="M348.502 159.98V165.58H345.622V152.08H348.502V153.14C349.195 152.233 350.122 151.78 351.282 151.78C352.549 151.78 353.602 152.2 354.442 153.04C355.335 153.933 355.782 155.093 355.782 156.52C355.782 157.96 355.309 159.153 354.362 160.1C353.562 160.9 352.555 161.3 351.342 161.3C350.075 161.3 349.129 160.86 348.502 159.98ZM350.582 154.26C349.955 154.26 349.422 154.48 348.982 154.92C348.529 155.373 348.302 155.92 348.302 156.56C348.302 157.16 348.515 157.687 348.942 158.14C349.395 158.593 349.942 158.82 350.582 158.82C351.169 158.82 351.682 158.613 352.122 158.2C352.589 157.76 352.822 157.193 352.822 156.5C352.822 155.847 352.595 155.307 352.142 154.88C351.702 154.467 351.182 154.26 350.582 154.26Z" fill="black"/>
<path d="M360.715 156.7H357.755V147.66H360.715V156.7ZM357.935 160.8C357.588 160.44 357.415 160.007 357.415 159.5C357.415 158.993 357.588 158.567 357.935 158.22C358.295 157.86 358.728 157.68 359.235 157.68C359.742 157.68 360.168 157.86 360.515 158.22C360.875 158.567 361.055 158.993 361.055 159.5C361.055 160.007 360.875 160.44 360.515 160.8C360.168 161.147 359.742 161.32 359.235 161.32C358.728 161.32 358.295 161.147 357.935 160.8Z" fill="black"/>
</svg>
